<?xml version="1.0" encoding="UTF-8"?>
<svg version="1.1" xmlns="http://www.w3.org/2000/svg" width="1116" height="1116">
<path d="M0 0 C3.85097885 0.00329167 7.70193649 -0.00503657 11.55290838 -0.01181835 C18.29180128 -0.02208841 25.03066547 -0.02496737 31.76956542 -0.02290613 C41.79128158 -0.0198483 51.81296612 -0.02819745 61.83467612 -0.03865538 C80.77899443 -0.05797263 99.72330189 -0.06362277 118.66762889 -0.06476949 C133.30235703 -0.06568955 147.93708093 -0.06981128 162.5718077 -0.07617074 C166.78863719 -0.07796592 171.00546669 -0.07974554 175.2222962 -0.0815205 C176.27070213 -0.0819626 177.31910807 -0.08240469 178.39928389 -0.08286019 C207.8800963 -0.09516467 237.36090724 -0.10306172 266.84172233 -0.10217363 C267.95267826 -0.10214247 269.0636342 -0.10211131 270.20825546 -0.10207921 C275.83867216 -0.101913 281.46908885 -0.10171492 287.09950555 -0.1015098 C288.21766702 -0.10146991 289.3358285 -0.10143002 290.48787366 -0.10138892 C292.74906878 -0.10130804 295.01026391 -0.10122445 297.27145903 -0.10113813 C332.43809342 -0.09991311 367.60468921 -0.11491852 402.77131255 -0.14228326 C442.30883706 -0.17303675 481.8463362 -0.19021376 521.38387342 -0.18835682 C525.60384647 -0.18820757 529.82381951 -0.18811015 534.04379256 -0.18804819 C535.60231114 -0.18801322 535.60231114 -0.18801322 537.19231493 -0.18797755 C553.87800227 -0.18791613 570.56365598 -0.2006618 587.24933333 -0.21791271 C604.03425894 -0.23490668 620.81913559 -0.23681368 637.60406506 -0.22369407 C647.56142396 -0.21632975 657.5186337 -0.21988715 667.47597664 -0.23957875 C674.14465077 -0.25164646 680.81321775 -0.24891293 687.48188712 -0.23463776 C691.27004181 -0.2269315 695.05790953 -0.22515583 698.84604311 -0.24155246 C742.21181502 -0.41690666 783.95885987 9.09218525 819.97687896 34.26933783 C820.54906158 34.66781928 821.12124419 35.06630072 821.71076568 35.47685736 C865.93579757 66.58885264 895.20981754 113.22513898 904.97687896 166.26933783 C905.1517627 167.18072095 905.32664644 168.09210407 905.5068297 169.03110486 C907.6691232 182.35609746 907.26546753 195.83318789 907.24621679 209.29245887 C907.24292512 213.14343772 907.25125336 216.99439537 907.25803514 220.84536725 C907.2683052 227.58426015 907.27118416 234.32312434 907.26912292 241.06202429 C907.26606509 251.08374046 907.27441423 261.105425 907.28487217 271.127135 C907.30418942 290.0714533 907.30983956 309.01576076 907.31098628 327.96008776 C907.31190634 342.5948159 907.31602807 357.22953981 907.32238753 371.86426657 C907.3241827 376.08109607 907.32596233 380.29792557 907.32773729 384.51475507 C907.32817938 385.56316101 907.32862148 386.61156695 907.32907697 387.69174276 C907.34138146 417.17255517 907.34927851 446.65336611 907.34839042 476.1341812 C907.34835926 477.24513713 907.3483281 478.35609307 907.348296 479.50071433 C907.34812979 485.13113103 907.34793171 490.76154772 907.34772659 496.39196442 C907.34766675 498.06920663 907.34766675 498.06920663 907.34760571 499.78033253 C907.34752483 502.04152766 907.34744123 504.30272278 907.34735492 506.56391791 C907.3461299 541.73055229 907.36113531 576.89714808 907.38850005 612.06377142 C907.41925353 651.60129593 907.43643055 691.13879508 907.43457361 730.67633229 C907.43442435 734.89630534 907.43432694 739.11627839 907.43426497 743.33625144 C907.43423001 744.89477001 907.43423001 744.89477001 907.43419434 746.4847738 C907.43413292 763.17046114 907.44687859 779.85611485 907.4641295 796.54179221 C907.48112347 813.32671781 907.48303046 830.11159447 907.46991086 846.89652394 C907.46254654 856.85388284 907.46610394 866.81109257 907.48579554 876.76843551 C907.49786325 883.43710964 907.49512972 890.10567663 907.48085455 896.774346 C907.47314829 900.56250069 907.47137262 904.35036841 907.48776925 908.13850198 C907.66312345 951.5042739 898.15403154 993.25131875 872.97687896 1029.26933783 C872.57839751 1029.84152045 872.17991607 1030.41370307 871.76935943 1031.00322455 C840.65736415 1075.22825645 794.0210778 1104.50227641 740.97687896 1114.26933783 C740.06549584 1114.44422157 739.15411272 1114.61910532 738.21511193 1114.79928857 C724.89011933 1116.96158207 711.4130289 1116.55792641 697.95375792 1116.53867566 C694.10277907 1116.53538399 690.25182142 1116.54371223 686.40084954 1116.55049401 C679.66195664 1116.56076407 672.92309245 1116.56364303 666.1841925 1116.56158179 C656.16247633 1116.55852396 646.14079179 1116.56687311 636.11908179 1116.57733104 C617.17476349 1116.59664829 598.23045603 1116.60229843 579.28612903 1116.60344516 C564.65140089 1116.60436521 550.01667698 1116.60848694 535.38195022 1116.61484641 C531.16512072 1116.61664158 526.94829122 1116.61842121 522.73146172 1116.62019616 C521.15885281 1116.62085931 521.15885281 1116.62085931 519.55447403 1116.62153585 C490.07366162 1116.63384033 460.59285068 1116.64173738 431.11203559 1116.64084929 C430.00107965 1116.64081813 428.89012372 1116.64078698 427.74550245 1116.64075487 C422.11508576 1116.64058867 416.48466906 1116.64039058 410.85425237 1116.64018546 C409.73609089 1116.64014557 408.61792942 1116.64010568 407.46588426 1116.64006458 C405.20468913 1116.6399837 402.94349401 1116.63990011 400.68229888 1116.6398138 C365.5156645 1116.63858877 330.34906871 1116.65359418 295.18244536 1116.68095892 C255.64492086 1116.71171241 216.10742171 1116.72888942 176.5698845 1116.72703248 C172.34991145 1116.72688323 168.1299384 1116.72678581 163.90996535 1116.72672385 C162.35144678 1116.72668888 162.35144678 1116.72668888 160.76144298 1116.72665322 C144.07575564 1116.72659179 127.39010194 1116.73933747 110.70442458 1116.75658838 C93.91949898 1116.77358234 77.13462232 1116.77548934 60.34969285 1116.76236974 C50.39233395 1116.75500541 40.43512422 1116.75856281 30.47778127 1116.77825442 C23.80910715 1116.79032212 17.14054016 1116.78758859 10.47187079 1116.77331342 C6.6837161 1116.76560716 2.89584838 1116.7638315 -0.8922852 1116.78022812 C-44.25805711 1116.95558232 -86.00510196 1107.44649041 -122.02312104 1082.26933783 C-122.59530366 1081.87085639 -123.16748628 1081.47237494 -123.75700776 1081.0618183 C-167.98203966 1049.94982303 -197.25605962 1003.31353668 -207.02312104 950.26933783 C-207.19800479 949.35795471 -207.37288853 948.44657159 -207.55307178 947.5075708 C-209.71536528 934.18257821 -209.31170962 920.70548777 -209.29245887 907.24621679 C-209.2891672 903.39523794 -209.29749544 899.5442803 -209.30427722 895.69330841 C-209.31454728 888.95441551 -209.31742624 882.21555132 -209.315365 875.47665137 C-209.31230717 865.45493521 -209.32065632 855.43325067 -209.33111425 845.41154066 C-209.3504315 826.46722236 -209.35608164 807.5229149 -209.35722837 788.5785879 C-209.35814842 773.94385976 -209.36227015 759.30913585 -209.36862962 744.67440909 C-209.37042479 740.4575796 -209.37220442 736.2407501 -209.37397937 732.02392059 C-209.37442147 730.97551466 -209.37486357 729.92710872 -209.37531906 728.8469329 C-209.38762354 699.36612049 -209.3955206 669.88530955 -209.3946325 640.40449446 C-209.39460134 639.29353853 -209.39457019 638.18258259 -209.39453808 637.03796133 C-209.39437188 631.40754463 -209.3941738 625.77712794 -209.39396867 620.14671124 C-209.39392878 619.02854977 -209.39388889 617.91038829 -209.39384779 616.75834313 C-209.39376691 614.49714801 -209.39368332 612.23595288 -209.39359701 609.97475776 C-209.39237198 574.80812337 -209.40737739 539.64152758 -209.43474214 504.47490424 C-209.46549562 464.93737973 -209.48267263 425.39988058 -209.48081569 385.86234337 C-209.48066644 381.64237032 -209.48056902 377.42239728 -209.48050706 373.20242423 C-209.48048375 372.16341184 -209.48046044 371.12439946 -209.48043643 370.05390186 C-209.480375 353.36821452 -209.49312068 336.68256081 -209.51037159 319.99688346 C-209.52736555 303.21195785 -209.52927255 286.42708119 -209.51615295 269.64215173 C-209.50878862 259.68479282 -209.51234602 249.72758309 -209.53203763 239.77024015 C-209.54410533 233.10156602 -209.5413718 226.43299903 -209.52709663 219.76432966 C-209.51939037 215.97617498 -209.51761471 212.18830726 -209.53401133 208.40017368 C-209.70936553 165.03440176 -200.20027362 123.28735692 -175.02312104 87.26933783 C-174.6246396 86.69715521 -174.22615815 86.1249726 -173.81560151 85.53545111 C-142.70360624 41.31041921 -96.06731989 12.03639925 -43.02312104 2.26933783 C-41.65604636 2.00701222 -41.65604636 2.00701222 -40.26135401 1.73938709 C-26.93636142 -0.42290641 -13.45927098 -0.01925075 0 0 Z " fill="#A12C28" transform="translate(209.02312104217708,-0.2693378310650587)"/>
<path d="M0 0 C83.51851852 0 83.51851852 0 111 10 C112.05960938 10.36867187 113.11921875 10.73734375 114.2109375 11.1171875 C143.54932003 21.77935502 163.65861307 41.41838506 177.4296875 68.84765625 C188.88918993 94.15109175 189.75600674 124.0733154 190.5 151.375 C190.52023224 152.07422577 190.54046448 152.77345154 190.56130981 153.49386597 C190.86759355 164.16993736 191.05087513 174.8466327 191.18798447 185.52610016 C191.21502213 187.61927806 191.24301858 189.71244119 191.27127075 191.80560303 C191.29025399 193.22082477 191.30920527 194.63604694 191.328125 196.05126953 C191.33755568 196.7564698 191.34698635 197.46167007 191.3567028 198.18824005 C191.4026511 201.68565714 191.44485435 205.18304962 191.47900391 208.68060303 C191.2379284 270.8159296 191.2379284 270.8159296 220 324 C235.05159369 337.01283267 254.89290136 341.61388482 274.25 342.75390625 C277 343 277 343 280 344 C280 376.34 280 408.68 280 442 C272.08 442.99 264.16 443.98 256 445 C244.01418447 447.3165862 234.8582403 450.82043128 225 458 C224.41605469 458.40476562 223.83210937 458.80953125 223.23046875 459.2265625 C207.37792406 471.32944206 199.35738091 493.08634126 196 512 C195.86255371 512.76119141 195.72510742 513.52238281 195.58349609 514.30664062 C191.96281023 534.91604408 190.84755814 555.54676744 190.69140625 576.43359375 C190.68441711 577.35567186 190.67742798 578.27774998 190.67022705 579.22776985 C190.608583 587.89549866 190.57151045 596.56330449 190.54370117 605.23120117 C190.15654938 715.13826313 190.15654938 715.13826313 158 748 C157.4534375 748.55945313 156.906875 749.11890625 156.34375 749.6953125 C133.01677451 771.69224114 100.0258206 780.98841897 69 784 C68.0198291 784.10296387 67.0396582 784.20592773 66.02978516 784.31201172 C43.95181807 786.57889788 22.31999088 786 0 786 C0 753.33 0 720.66 0 687 C9.9 686.67 19.8 686.34 30 686 C54.86889298 683.23782979 54.86889298 683.23782979 74.8125 669.125 C79.38144882 662.91292574 80.53187414 655.4195608 82 648 C82.17451187 647.21610901 82.34902374 646.43221802 82.52882385 645.62457275 C83.03092491 642.82774029 83.18617396 640.17506278 83.26538086 637.33496094 C83.29897705 636.21036972 83.33257324 635.0857785 83.3671875 633.92710876 C83.39941406 632.70850662 83.43164062 631.48990448 83.46484375 630.234375 C83.52227682 628.2704186 83.57971558 626.30646235 83.63739204 624.34251308 C83.69815421 622.25129877 83.75698714 620.1600373 83.81539917 618.0687561 C83.99915035 611.51999498 84.20061459 604.9717676 84.40112495 598.42350197 C84.44632487 596.94725664 84.49142297 595.4710082 84.53642082 593.9947567 C88.52435165 463.17362696 88.52435165 463.17362696 123 423 C123.69996094 422.16210938 124.39992188 421.32421875 125.12109375 420.4609375 C134.74631457 409.24089452 146.75287768 401.09650184 159 393 C156.12782353 390.66635662 153.2158067 388.3999918 150.25 386.1875 C126.19488489 368.1971279 106.57548288 347.6272098 98 318 C97.75556152 317.17935059 97.51112305 316.35870117 97.25927734 315.51318359 C95.42789326 309.36330974 93.64012476 303.20386871 92 297 C91.8129248 296.30994873 91.62584961 295.61989746 91.43310547 294.90893555 C89.60175523 287.53926974 89.11531666 279.98426623 88.5 272.4375 C88.43652374 271.6728241 88.37304749 270.90814819 88.30764771 270.12030029 C86.33145826 246.12736115 85.20890551 222.11587991 84.59767723 198.05105972 C84.53888178 195.74290557 84.47874013 193.43478981 84.41828918 191.12667847 C84.08581061 178.35753601 84.08581061 178.35753601 83.96627808 172.56207275 C84.73328135 140.57612147 84.73328135 140.57612147 73.1015625 111.953125 C55.01450689 95.14359376 21.06210886 98.7020703 0 98 C0 65.66 0 33.32 0 0 Z " fill="#FEFEFD" transform="translate(662,160)"/>
<path d="M0 0 C0 32.34 0 64.68 0 98 C-15.84 98.495 -15.84 98.495 -32 99 C-55.49697916 101.29911136 -55.49697916 101.29911136 -74 115 C-84.19474954 130.4818529 -82.37674552 150.75813306 -82.83370972 168.58239746 C-83.01273386 175.44753369 -83.22273459 182.31168109 -83.4375 189.17578125 C-83.47017377 190.22485216 -83.47017377 190.22485216 -83.50350761 191.29511642 C-83.93761411 205.10914944 -84.5309418 218.91227399 -85.25271606 232.71456909 C-85.37343457 235.02424998 -85.49129619 237.33408244 -85.60592651 239.64407349 C-88.01241775 287.73258308 -94.18187587 338.26429003 -131.65112305 372.51464844 C-137.0959892 377.29300857 -142.9721673 381.4947257 -148.90844727 385.63696289 C-152.58031068 388.20100957 -155.97311692 390.65999108 -159 394 C-157.95199219 394.37125 -157.95199219 394.37125 -156.8828125 394.75 C-130.66004691 406.12030486 -110.76388751 433.90192939 -100.078125 459.45703125 C-89.02664908 487.74676636 -86.9152816 519.03995127 -85.59199905 549.06253815 C-85.49914461 551.14417632 -85.40295612 553.22563407 -85.30563354 555.30706787 C-84.58842807 570.65056512 -83.96284363 585.99261838 -83.56048965 601.34784317 C-83.50429152 603.48534634 -83.44611384 605.62278739 -83.38742065 607.76022339 C-83.20397143 614.49634874 -83.04018189 621.231807 -82.91015625 627.96923828 C-82.57377752 651.50350761 -82.57377752 651.50350761 -71.5625 671.6875 C-61.05346129 681.17126664 -50.91401506 683.99859592 -37 685.0625 C-36.0925 685.14048828 -35.185 685.21847656 -34.25 685.29882812 C-22.84124852 686.21668646 -11.45226541 686.52282227 0 687 C0 719.34 0 751.68 0 785 C-13.179375 785.061875 -13.179375 785.061875 -26.625 785.125 C-29.34830566 785.14320801 -32.07161133 785.16141602 -34.87744141 785.18017578 C-53.03389034 785.250961 -71.16938845 784.67608831 -89.0625 781.3125 C-89.95187256 781.14661377 -90.84124512 780.98072754 -91.75756836 780.80981445 C-106.66059391 777.84390117 -121.05459595 773.03686633 -134 765 C-135.05832031 764.34902344 -136.11664063 763.69804688 -137.20703125 763.02734375 C-142.46293616 759.66382384 -147.19293883 756.26535787 -151.40234375 751.640625 C-153.04778578 749.87255272 -153.04778578 749.87255272 -155.390625 748.1640625 C-178.02200935 729.39492039 -184.86546755 696.51985541 -187.6484375 668.87890625 C-188.19276274 662.92409111 -188.6334326 656.96824405 -189 651 C-189.08467529 649.74292236 -189.16935059 648.48584473 -189.2565918 647.19067383 C-190.12470782 633.43329746 -190.21905216 619.66313816 -190.36443233 605.88372707 C-190.68694668 573.83630319 -190.68694668 573.83630319 -191.875 541.8125 C-191.90834442 541.0950058 -191.94168884 540.3775116 -191.9760437 539.63827515 C-193.06106139 516.99147304 -197.96660736 495.85792517 -209 476 C-209.83337891 474.45119141 -209.83337891 474.45119141 -210.68359375 472.87109375 C-218.86614283 458.76257387 -233.03081488 451.29994496 -248.296875 446.875 C-258.38978329 444.49017779 -268.72172331 443.28478459 -279 442 C-279 409.66 -279 377.32 -279 344 C-266.13 342.02 -266.13 342.02 -253 340 C-234.97913788 335.70931854 -219.97175053 327.94406867 -209.71484375 312.01953125 C-190.30553175 277.84322561 -190.57200345 240.28190718 -190.44702148 202.02838135 C-190.41882814 193.61646185 -190.37308778 185.20468754 -190.30859375 176.79296875 C-190.30191114 175.89258062 -190.29522854 174.9921925 -190.28834343 174.06451988 C-190.15447795 157.98101029 -189.37578529 142.02784942 -188 126 C-187.91574768 125.00740173 -187.83149536 124.01480347 -187.74468994 122.99212646 C-187.25541555 117.31496323 -186.6812035 111.65737093 -186 106 C-185.91169922 105.22720703 -185.82339844 104.45441406 -185.73242188 103.65820312 C-183.06560873 81.1115102 -175.82713743 60.45722832 -161 43 C-160.40832031 42.26394531 -159.81664062 41.52789062 -159.20703125 40.76953125 C-153.9100794 34.42411058 -147.78601839 29.67817258 -141 25 C-140.23300781 24.46632812 -139.46601563 23.93265625 -138.67578125 23.3828125 C-97.79552318 -3.01456182 -46.13311481 0 0 0 Z " fill="#FEFEFD" transform="translate(448,160)"/>
<path d="M0 0 C21.12 0 42.24 0 64 0 C62.87586288 11.24137117 62.87586288 11.24137117 61.765625 15.26953125 C61.52408691 16.16591309 61.28254883 17.06229492 61.03369141 17.98583984 C60.77507324 18.9186377 60.51645508 19.85143555 60.25 20.8125 C59.69871758 22.86279724 59.14927288 24.91358939 58.6015625 26.96484375 C58.32860352 27.98433105 58.05564453 29.00381836 57.77441406 30.05419922 C56.65511093 34.31192671 55.63010357 38.58909472 54.625 42.875 C52.51569792 51.84234451 50.36121776 60.79810066 48.1875 69.75 C47.84551972 71.15933744 47.50356019 72.56867991 47.16162109 73.97802734 C45.74947661 79.79742922 44.33615727 85.61654554 42.92236328 91.43554688 C41.86437684 95.7902355 40.8069848 100.14506815 39.75 104.5 C39.57949127 105.20232758 39.40898254 105.90465515 39.23330688 106.62826538 C37.41992241 114.10004382 35.61625001 121.57353436 33.875 129.0625 C32.33980988 135.64285236 30.70978259 142.19685897 29.0625 148.75 C26.99605313 156.97086471 24.98108986 165.20101136 23.03100586 173.45019531 C21.09244296 181.64079401 19.11084081 189.8207706 17.125 198 C16.43094474 200.85936412 15.73694449 203.71874158 15.04296875 206.578125 C14.87101486 207.28657059 14.69906097 207.99501617 14.52189636 208.72492981 C12.8215639 215.73195112 11.12858189 222.74074064 9.4375 229.75 C9.00932983 231.52455566 9.00932983 231.52455566 8.57250977 233.33496094 C7.71487192 236.88994151 6.85740287 240.44496275 6 244 C4.85438373 248.75005239 3.70852763 253.50004684 2.5625 258.25 C2.27624756 259.43698486 1.98999512 260.62396973 1.69506836 261.84692383 C0.14565068 268.268031 -1.40949413 274.68769685 -2.97265625 281.10546875 C-3.64870897 283.8827465 -4.32444499 286.66010115 -5 289.4375 C-5.25094421 290.46880035 -5.25094421 290.46880035 -5.50695801 291.52093506 C-8.27015804 302.88620423 -10.930815 314.27297133 -13.56420898 325.66894531 C-15.29462143 333.1115581 -17.15285562 340.50162963 -19.15698242 347.87451172 C-20.98413631 354.70335927 -22.49346212 361.59432005 -24 368.5 C-25.66845989 376.14789931 -27.38407755 383.7582666 -29.4375 391.3125 C-31.92049218 400.45994351 -34.05483519 409.6792131 -36.1875 418.91381836 C-39.67159379 433.97210958 -43.34198227 448.98287459 -47 464 C-68.12 464 -89.24 464 -111 464 C-108.75174366 451.63459011 -108.75174366 451.63459011 -107.44921875 446.5390625 C-107.16578613 445.42039795 -106.88235352 444.3017334 -106.59033203 443.14916992 C-106.29239746 441.98619385 -105.99446289 440.82321777 -105.6875 439.625 C-105.05256287 437.11348905 -104.41845287 434.60176886 -103.78515625 432.08984375 C-103.47723145 430.87022949 -103.16930664 429.65061523 -102.85205078 428.39404297 C-100.09113789 417.39627475 -97.53412339 406.35049566 -95.0078125 395.296875 C-94.25588619 392.01026115 -93.50322101 388.72381737 -92.75 385.4375 C-92.5581311 384.60004242 -92.36626221 383.76258484 -92.1685791 382.89974976 C-89.20282581 369.97782602 -86.06201582 357.10863923 -82.80685425 344.25689697 C-79.84007663 332.52986342 -77.08511368 320.7693304 -74.45483398 308.96264648 C-70.90235987 293.01844685 -67.05518372 277.15168021 -63.0625 261.3125 C-60.82038691 252.41734324 -58.69548567 243.49910723 -56.625 234.5625 C-54.11643638 223.73654562 -51.55758581 212.92450117 -48.9375 202.125 C-48.76801849 201.42603607 -48.59853699 200.72707214 -48.42391968 200.00692749 C-46.53931055 192.24173468 -44.62567652 184.48468387 -42.66308594 176.73876953 C-40.18066313 166.94105096 -37.88096885 157.11656744 -35.6875 147.25 C-32.92218962 134.81428005 -29.90697848 122.45434271 -26.7850647 110.1036377 C-24.33480137 100.4069543 -21.97111233 90.70448294 -19.80761719 80.93896484 C-17.94587541 72.59918631 -15.83339857 64.32666511 -13.73266602 56.04443359 C-11.12515333 45.68082528 -8.7619584 35.27070264 -6.48486328 24.83032227 C-6.21786621 23.62045654 -5.95086914 22.41059082 -5.67578125 21.1640625 C-5.44802002 20.11686035 -5.22025879 19.0696582 -4.9855957 17.99072266 C-3.49354154 11.94932624 -1.70956678 5.98348374 0 0 Z " fill="#FEFDFC" transform="translate(580,313)"/>
<path d="M0 0 C0.33 0 0.66 0 1 0 C0.61142328 16.74765649 0.61142328 16.74765649 -2.94921875 24.1796875 C-4.73155144 28.96349494 -5.30943308 33.98637553 -6.04833984 39.02124023 C-6.91765489 44.91765489 -6.91765489 44.91765489 -8 46 C-8.37083283 47.42828582 -8.69743214 48.86821123 -9 50.3125 C-9.61598718 53.22400191 -10.26111126 56.11701446 -11 59 C-11.66 59 -12.32 59 -13 59 C-12.938125 60.27875 -12.87625 61.5575 -12.8125 62.875 C-12.70703125 65.0546875 -12.70703125 65.0546875 -13 67 C-16.4849032 69.3232688 -17.85329756 69.25274114 -21.96850586 69.25878906 C-23.81072975 69.26824554 -23.81072975 69.26824554 -25.69017029 69.27789307 C-27.03172956 69.27431287 -28.37328753 69.2702108 -29.71484375 69.265625 C-31.09102955 69.26697245 -32.46721488 69.26891366 -33.84339905 69.27142334 C-36.72759534 69.27437183 -39.61166772 69.27008655 -42.49584961 69.26074219 C-46.18917446 69.24935841 -49.88220829 69.25590186 -53.57552242 69.26788712 C-56.41771121 69.27512235 -59.25983129 69.27280998 -62.10202217 69.26763153 C-63.46355791 69.26629907 -64.82509993 69.2679286 -66.18662834 69.27259064 C-68.09178418 69.27768169 -69.99696194 69.26854346 -71.90209961 69.25878906 C-72.98559189 69.25719788 -74.06908417 69.25560669 -75.18540955 69.25396729 C-77.97525124 69.00223314 -79.62803953 68.44148662 -82 67 C-81.80664062 66.40574219 -81.61328125 65.81148437 -81.4140625 65.19921875 C-80.01948373 60.7600398 -78.82791572 56.40499432 -78.0625 51.8125 C-77.30235554 47.26451705 -76.183518 42.87210304 -74.9375 38.4375 C-73.48861405 33.19798624 -72.50988177 28.28459295 -72.2734375 22.85546875 C-72 21 -72 21 -70 19 C-69.3839535 16.64319825 -68.85273616 14.26368079 -68.375 11.875 C-68.11460937 10.59367188 -67.85421875 9.31234375 -67.5859375 7.9921875 C-67.39257812 7.00476563 -67.19921875 6.01734375 -67 5 C-66.01 5 -65.02 5 -64 5 C-66.54572084 15.85131284 -69.11284354 26.69736741 -71.69921875 37.5390625 C-72.601986 41.32450632 -73.49976083 45.11109566 -74.39453125 48.8984375 C-74.62148682 49.85717773 -74.84844238 50.81591797 -75.08227539 51.80371094 C-75.51873618 53.64785749 -75.95416419 55.49224886 -76.38842773 57.33691406 C-76.58509033 58.16674805 -76.78175293 58.99658203 -76.984375 59.8515625 C-77.24299316 60.94718506 -77.24299316 60.94718506 -77.50683594 62.06494141 C-77.93128339 63.73037233 -78.45650982 65.36952945 -79 67 C-57.88 67 -36.76 67 -15 67 C-14.67 64.03 -14.34 61.06 -14 58 C-13.41849772 55.31178954 -12.80526415 52.6758253 -12.109375 50.01953125 C-11.92428879 49.29172958 -11.73920258 48.56392792 -11.54850769 47.81407166 C-11.15569366 46.27111637 -10.76031787 44.72881124 -10.36251831 43.18713379 C-9.3292601 39.18135988 -8.31533641 35.17070077 -7.30078125 31.16015625 C-7.10090103 30.37160248 -6.90102081 29.58304871 -6.69508362 28.77059937 C-4.28336246 19.22121211 -2.10843302 9.62038784 0 0 Z " fill="#933E3B" transform="translate(548,710)"/>
<path d="M0 0 C-0.33 0.66 -0.66 1.32 -1 2 C-15.19627579 4.63436046 -29.62764944 4 -44 4 C-43.67 35.02 -43.34 66.04 -43 98 C-24.85 98.33 -6.7 98.66 12 99 C12 99.33 12 99.66 12 100 C-7.29855094 101.20615943 -26.66379332 101 -46 101 C-46 68.33 -46 35.66 -46 2 C-31.15 1.505 -31.15 1.505 -16 1 C-4.75 -0.125 -4.75 -0.125 0 0 Z " fill="#E8C9C6" transform="translate(708,845)"/>
<path d="M0 0 C0.99 1.98 0.99 1.98 2 4 C1.34 4.33 0.68 4.66 0 5 C0 4.34 0 3.68 0 3 C-21.12 3 -42.24 3 -64 3 C-64.66 6.3 -65.32 9.6 -66 13 C-66.47745926 15.08056676 -66.96896996 17.1580078 -67.48046875 19.23046875 C-67.75391113 20.34760254 -68.02735352 21.46473633 -68.30908203 22.61572266 C-68.74389893 24.38375244 -68.74389893 24.38375244 -69.1875 26.1875 C-71.78040759 36.80952722 -74.24857666 47.45257067 -76.625 58.125 C-78.67624321 67.32803158 -80.82085466 76.48446859 -83.28637695 85.58569336 C-85.38749534 93.34455215 -87.20441705 101.16564089 -89 109 C-89.33 109 -89.66 109 -90 109 C-90.43720801 100.2558397 -88.43840696 92.81067216 -85.9453125 84.47265625 C-84.09755472 78.2617624 -82.55715544 72.48105723 -82.2734375 65.98828125 C-82 64 -82 64 -80 61 C-79.67078018 58.81214676 -79.56088038 56.65756322 -79.44140625 54.44921875 C-79 52 -79 52 -77.56640625 49.2265625 C-75.70666125 45.39576607 -75.04328344 41.86047444 -74.375 37.6875 C-73.11384166 30.11384166 -73.11384166 30.11384166 -72 29 C-71.81445263 27.46260752 -71.67680798 25.91932417 -71.5625 24.375 C-70.9628232 17.95118939 -69.12920434 12.31552751 -66.92578125 6.27734375 C-66.56524658 5.28855225 -66.20471191 4.29976074 -65.83325195 3.28100586 C-65.55827881 2.52827393 -65.28330566 1.77554199 -65 1 C-57.26333333 0.86912238 -49.52665915 0.73869822 -41.78997517 0.60884857 C-38.19730062 0.54853629 -34.60462882 0.48806943 -31.01196289 0.42724609 C-27.54308357 0.36852419 -24.07419758 0.31021253 -20.60530663 0.25218201 C-18.6416769 0.21922656 -16.67805426 0.18584929 -14.71443176 0.15246582 C-13.5135643 0.13244507 -12.31269684 0.11242432 -11.07543945 0.09179688 C-10.02064896 0.07403198 -8.96585846 0.05626709 -7.87910461 0.03796387 C-5.25228437 0.00332662 -2.62700307 -0.00710844 0 0 Z " fill="#913E3C" transform="translate(644,310)"/>
<path d="M0 0 C0.66 0 1.32 0 2 0 C4.98079205 9.931031 5.93458838 19.69790846 6.65234375 29.98046875 C6.71511946 30.84000845 6.77789516 31.69954815 6.84257317 32.58513451 C8.30439597 52.87968512 8.48530888 73.16669884 8.55297852 93.50543213 C8.57848853 101.02614543 8.61843581 108.54667716 8.67487907 116.06722069 C8.69074842 118.63196508 8.69493561 121.19652035 8.69789124 123.76130676 C8.74236618 133.53272943 9.37037861 143.10067394 10.52185059 152.80490112 C10.97733442 156.64419998 11.27941131 160.47381282 11.52734375 164.33203125 C11.59759766 165.41677734 11.66785156 166.50152344 11.74023438 167.61914062 C11.87485566 169.79840599 12.00214401 171.97813365 12.12304688 174.15820312 C12.5022955 179.81959923 12.9713428 184.05685482 16 189 C17.37661872 193.12985617 18.26418529 196.64094275 18 201 C17.34 201 16.68 201 16 201 C7.29512929 173.55639996 6.76028712 145.31244353 6.47955322 116.68527222 C6.43803725 112.4613326 6.38227991 108.23764985 6.32373047 104.01391602 C6.30914921 102.95658154 6.30914921 102.95658154 6.29427338 101.87788677 C6.27478339 100.46466537 6.25526755 99.05144433 6.2357254 97.63822365 C6.19804794 94.88187566 6.16208522 92.12550644 6.12610626 89.36913586 C5.73249819 59.32336821 4.44113434 29.76155184 0 0 Z " fill="#8F3E3A" transform="translate(846,252)"/>
<path d="M0 0 C0.33 0 0.66 0 1 0 C1.41147731 5.76068241 0.73447862 10.26277929 -0.875 15.8125 C-2.75128691 22.73970842 -3.60249912 29.55251156 -4.1015625 36.703125 C-4.18498901 37.8910817 -4.26841553 39.07903839 -4.35437012 40.30299377 C-5.63401319 60.8335918 -5.41057376 81.44405762 -5.51568604 102.00598145 C-5.54732438 108.05383831 -5.58675773 114.10155349 -5.63594055 120.1492939 C-5.65550013 122.92107975 -5.66421408 125.69274524 -5.67224121 128.46458435 C-5.74706711 140.73536375 -6.65471988 152.80490061 -8 165 C-8.66 165 -9.32 165 -10 165 C-9.89538956 163.18316963 -9.89538956 163.18316963 -9.78866577 161.32963562 C-9.16758246 150.07971573 -8.84649739 138.86293504 -8.80076981 127.59681129 C-8.78859439 124.85148031 -8.76906119 122.10628155 -8.74765015 119.36100769 C-8.68730749 111.57022805 -8.63251573 103.77946943 -8.59863281 95.98852539 C-8.27212671 24.81638012 -8.27212671 24.81638012 0 0 Z " fill="#9A4F4C" transform="translate(860,659)"/>
<path d="M0 0 C4.72265527 8.93008231 4.53478104 19.06239456 5 28.92578125 C5.08169827 30.54382483 5.16373991 32.1618511 5.24609375 33.77986145 C6.46076481 58.1211969 7.33599586 82.48110055 8.25 106.83520508 C8.45293604 112.23385207 8.66368318 117.63214729 8.87939453 123.03029823 C8.95886512 125.05662094 9.03543332 127.08305986 9.10888672 129.1096096 C9.21105612 131.92261719 9.32319723 134.7350703 9.4375 137.54760742 C9.46457031 138.36054764 9.49164063 139.17348785 9.51953125 140.01106262 C9.7660237 145.72149574 10.28082066 151.52350972 12 157 C12.66 157.33 13.32 157.66 14 158 C14.8515625 160.06640625 14.8515625 160.06640625 15.625 162.5625 C15.88539063 163.38878906 16.14578125 164.21507812 16.4140625 165.06640625 C16.60742188 165.70449219 16.80078125 166.34257813 17 167 C16.34 167.33 15.68 167.66 15 168 C7.02916652 156.04374978 6.34950994 142.61274436 6.0234375 128.734375 C5.9689925 126.98391693 5.9128875 125.23350982 5.85523987 123.4831543 C5.73703768 119.80095864 5.62932964 116.11867883 5.53048706 112.43591309 C5.37665709 106.7160959 5.19787783 100.99723819 5.01391602 95.27832031 C4.83323641 89.63556982 4.6531636 83.99281873 4.48127747 78.34979248 C4.09386361 65.64437055 3.65670076 52.94365741 3.05523682 40.24621582 C2.97842542 38.61768688 2.9043626 36.9890253 2.83343506 35.36022949 C2.43845626 26.30162925 1.65131502 17.37800118 0.40454102 8.39941406 C0.06537444 5.54935043 -0.08235137 2.863504 0 0 Z " fill="#8F3D3A" transform="translate(358,661)"/>
<path d="M0 0 C13.86 0 27.72 0 42 0 C42 0.33 42 0.66 42 1 C28.8 1 15.6 1 2 1 C2 32.35 2 63.7 2 96 C13.22 96.33 24.44 96.66 36 97 C36.99 97.99 36.99 97.99 38 99 C25.46 98.67 12.92 98.34 0 98 C0 65.66 0 33.32 0 0 Z " fill="#ECCECD" transform="translate(662,160)"/>
<path d="M0 0 C14.4478125 0.061875 14.4478125 0.061875 29.1875 0.125 C29.1875 32.795 29.1875 65.465 29.1875 99.125 C28.8575 99.125 28.5275 99.125 28.1875 99.125 C28.1875 66.785 28.1875 34.445 28.1875 1.125 C-25.18954477 1.05850237 -25.18954477 1.05850237 -76.91015625 10.94140625 C-80.84195751 12.16478866 -84.81062693 13.15687686 -88.8125 14.125 C-89.1425 13.465 -89.4725 12.805 -89.8125 12.125 C-89.1525 12.125 -88.4925 12.125 -87.8125 12.125 C-87.8125 11.465 -87.8125 10.805 -87.8125 10.125 C-86.678125 10.021875 -85.54375 9.91875 -84.375 9.8125 C-79.60494715 9.22256414 -75.32521184 7.71965591 -70.8125 6.125 C-48.0570263 -1.03876024 -23.5544664 -0.14327303 0 0 Z " fill="#984E49" transform="translate(419.8125,158.875)"/>
<path d="M0 0 C0.66 0.66 1.32 1.32 2 2 C1.76925781 2.66 1.53851562 3.32 1.30078125 4 C-14.36924739 51.56751776 -11.86478697 104.49825151 -13 154 C-13.33 154 -13.66 154 -14 154 C-14.17309372 150.35444367 -14.33717195 146.70852811 -14.5 143.0625 C-14.54769531 142.06025391 -14.59539063 141.05800781 -14.64453125 140.02539062 C-15.45830273 121.4830261 -14.6159885 103.12330596 -13.51074219 84.61791992 C-13.33525263 81.67010153 -13.16881729 78.72199625 -13.01074219 75.77319336 C-12.1611854 59.96451182 -11.21709154 44.40646633 -7.47001648 28.96165466 C-6.7027985 25.75960368 -6.04705651 22.5357375 -5.375 19.3125 C-5.13652344 18.21808594 -4.89804687 17.12367188 -4.65234375 15.99609375 C-4.23834463 14.09467266 -3.83358454 12.19119759 -3.44140625 10.28515625 C-2.6631783 6.56293418 -1.79317901 3.34825956 0 0 Z " fill="#93423F" transform="translate(760,622)"/>
<path d="M0 0 C0 32.34 0 64.68 0 98 C-6.27 98 -12.54 98 -19 98 C-19 97.67 -19 97.34 -19 97 C-10.585 96.505 -10.585 96.505 -2 96 C-1.67 64.65 -1.34 33.3 -1 1 C-26.04853008 1.28235546 -26.04853008 1.28235546 -51 3 C-53.04196319 3.07188378 -55.08570868 3.10882126 -57.12890625 3.09765625 C-58.18271484 3.09443359 -59.23652344 3.09121094 -60.32226562 3.08789062 C-61.39154297 3.07951172 -62.46082031 3.07113281 -63.5625 3.0625 C-64.66658203 3.05798828 -65.77066406 3.05347656 -66.90820312 3.04882812 C-69.605527 3.0371514 -72.30273347 3.02077525 -75 3 C-75 2.67 -75 2.34 -75 2 C-49.93600904 -0.68033578 -25.34917909 0 0 0 Z " fill="#FEEDEA" transform="translate(448,160)"/>
<path d="M0 0 C0.33 0 0.66 0 1 0 C0.88638398 2.79256219 0.7596411 5.58344118 0.625 8.375 C0.57859375 9.56609375 0.57859375 9.56609375 0.53125 10.78125 C0.2265625 16.7734375 0.2265625 16.7734375 -2 19 C-2.61401655 21.6170858 -2.61401655 21.6170858 -3 24.625 C-3.75015798 29.53032992 -4.70173909 34.21266288 -6 39 C-6.17660156 39.66257812 -6.35320313 40.32515625 -6.53515625 41.0078125 C-7.86159471 45.86159471 -7.86159471 45.86159471 -9 47 C-9.20699563 48.49496842 -9.36679259 49.9966592 -9.5 51.5 C-9.88888889 55.88888889 -9.88888889 55.88888889 -11 57 C-11.33524825 58.34404071 -11.61601719 59.70170438 -11.875 61.0625 C-12.04773438 61.95195313 -12.22046875 62.84140625 -12.3984375 63.7578125 C-12.85328988 66.20928963 -13.29456458 68.66167975 -13.7265625 71.1171875 C-13.85434082 71.8299585 -13.98211914 72.54272949 -14.11376953 73.27709961 C-14.36838257 74.70129099 -14.61690226 76.12658712 -14.85888672 77.55297852 C-15.4718909 80.96941631 -16.04464462 83.06696693 -18 86 C-18.59739945 88.04705225 -19.13409983 90.11233108 -19.625 92.1875 C-19.88539063 93.27417969 -20.14578125 94.36085938 -20.4140625 95.48046875 C-20.60742188 96.31191406 -20.80078125 97.14335938 -21 98 C-21.66 98 -22.32 98 -23 98 C-21.67862059 90.25654517 -20.04606568 82.63125632 -18.1875 75 C-17.92324219 73.90550537 -17.65898438 72.81101074 -17.38671875 71.68334961 C-15.83272631 65.28853999 -14.20756835 58.91782982 -12.5 52.5625 C-9.60801899 41.79373765 -7.17157715 30.9216665 -4.69775391 20.05078125 C-3.69224616 15.65441148 -2.66177334 11.26408624 -1.625 6.875 C-1.45734131 6.16456543 -1.28968262 5.45413086 -1.11694336 4.72216797 C-0.7451455 3.14798988 -0.37266757 1.57397243 0 0 Z " fill="#954441" transform="translate(605,474)"/>
<path d="M0 0 C0.33 0 0.66 0 1 0 C0.61142328 16.74765649 0.61142328 16.74765649 -2.94921875 24.1796875 C-4.73155144 28.96349494 -5.30943308 33.98637553 -6.04833984 39.02124023 C-6.91765489 44.91765489 -6.91765489 44.91765489 -8 46 C-8.37083283 47.42828582 -8.69743214 48.86821123 -9 50.3125 C-9.61598718 53.22400191 -10.26111126 56.11701446 -11 59 C-11.66 59 -12.32 59 -13 59 C-12.979375 60.299375 -12.95875 61.59875 -12.9375 62.9375 C-12.91600546 64.29165633 -12.92851801 65.64756083 -13 67 C-14 68 -14 68 -16.51197815 68.12025452 C-17.62894577 68.11803391 -18.74591339 68.11581329 -19.89672852 68.11352539 C-21.15796036 68.11344986 -22.4191922 68.11337433 -23.71864319 68.11329651 C-25.10539794 68.1081891 -26.49215229 68.10297309 -27.87890625 68.09765625 C-29.28995209 68.09579201 -30.70099857 68.09436814 -32.11204529 68.09336853 C-35.83240535 68.08954379 -39.5527266 68.0797139 -43.27307129 68.06866455 C-47.06680781 68.05844948 -50.86055058 68.05387071 -54.65429688 68.04882812 C-62.10288231 68.03809158 -69.55143572 68.0210157 -77 68 C-77 67.67 -77 67.34 -77 67 C-56.54 67 -36.08 67 -15 67 C-14.67 64.03 -14.34 61.06 -14 58 C-13.41849772 55.31178954 -12.80526415 52.6758253 -12.109375 50.01953125 C-11.92428879 49.29172958 -11.73920258 48.56392792 -11.54850769 47.81407166 C-11.15569366 46.27111637 -10.76031787 44.72881124 -10.36251831 43.18713379 C-9.3292601 39.18135988 -8.31533641 35.17070077 -7.30078125 31.16015625 C-7.10090103 30.37160248 -6.90102081 29.58304871 -6.69508362 28.77059937 C-4.28336246 19.22121211 -2.10843302 9.62038784 0 0 Z " fill="#87403D" transform="translate(548,710)"/>
<path d="M0 0 C0.33 0 0.66 0 1 0 C1.3209614 3.16598821 1.63160187 6.33254416 1.9375 9.5 C2.02451172 10.34820313 2.11152344 11.19640625 2.20117188 12.0703125 C4.32175809 34.3757379 4.13438918 56.7906345 4.06866455 79.17016602 C4.05823097 83.11343836 4.05382512 87.05671768 4.04882812 91 C4.03826649 98.66668493 4.02131777 106.3333366 4 114 C3.67 114 3.34 114 3 114 C1.48493005 75.99796995 0.51061544 38.0284507 0 0 Z " fill="#913E3B" transform="translate(254,678)"/>
<path d="M0 0 C0.33 0 0.66 0 1 0 C1.23504701 26.1679641 1.02222024 52.28393849 0.0625 78.4375 C0.01893372 79.66365021 -0.02463257 80.88980042 -0.06951904 82.15310669 C-0.19477911 85.62188969 -0.32788128 89.09025502 -0.46484375 92.55859375 C-0.50344009 93.60425507 -0.54203644 94.64991638 -0.58180237 95.7272644 C-0.62175827 96.67505768 -0.66171417 97.62285095 -0.70288086 98.59936523 C-0.75284462 99.84447121 -0.75284462 99.84447121 -0.80381775 101.11473083 C-1 103 -1 103 -2 104 C-2.23690961 107.39570436 -2.3964169 110.78416702 -2.51757812 114.18554688 C-2.78671875 119.78671875 -2.78671875 119.78671875 -5 122 C-4.96685699 121.38599335 -4.93371399 120.77198669 -4.89956665 120.13937378 C-4.46465555 112.05176961 -4.04089382 103.96360383 -3.625 95.875 C-3.59108028 95.21543808 -3.55716057 94.55587616 -3.52221298 93.87632751 C-2.38420344 71.67417092 -1.4997339 49.47056283 -0.8125 27.25 C-0.79115242 26.55997643 -0.76980484 25.86995285 -0.74781036 25.15901947 C-0.48920834 16.77295179 -0.23972859 8.38662888 0 0 Z " fill="#954A48" transform="translate(365,304)"/>
<path d="M0 0 C0.33 0 0.66 0 1 0 C1.23268915 6.28260706 0.40454548 11.88019467 -1 18 C-1.66 18 -2.32 18 -3 18 C-2.87625 19.5159375 -2.87625 19.5159375 -2.75 21.0625 C-2.70959443 26.71928024 -4.51725434 31.95167161 -6.125 37.31640625 C-7.00437591 41.01842179 -7.15604438 44.2110475 -7 48 C-8.485 48.495 -8.485 48.495 -10 49 C-10.2475 50.27875 -10.495 51.5575 -10.75 52.875 C-11.9224225 58.77085126 -13.24637713 64.63110505 -14.59082031 70.48974609 C-15.60684802 74.98160654 -16.41307676 79.43167995 -17 84 C-17.99 84 -18.98 84 -20 84 C-18.50064737 76.18361173 -16.75444221 68.43559793 -14.9375 60.6875 C-14.63948486 59.41382568 -14.34146973 58.14015137 -14.03442383 56.82788086 C-11.4689401 45.89401576 -8.83675293 34.97633041 -6.1875 24.0625 C-5.99300262 23.25968597 -5.79850525 22.45687195 -5.59811401 21.62973022 C-5.0397255 19.32696469 -4.47922872 17.02472341 -3.91796875 14.72265625 C-3.75363342 14.04463959 -3.5892981 13.36662292 -3.41998291 12.6680603 C-2.3787213 8.41237398 -1.22653223 4.20491313 0 0 Z " fill="#944642" transform="translate(581,575)"/>
<path d="M0 0 C1.19321193 3.5796358 0.71959229 4.99284729 -0.1875 8.6171875 C-0.47052979 9.76670898 -0.75355957 10.91623047 -1.04516602 12.10058594 C-1.36026123 13.34614258 -1.67535645 14.59169922 -2 15.875 C-2.32369771 17.17979937 -2.64651944 18.48481634 -2.96850586 19.79003906 C-3.63949645 22.50704475 -4.31427448 25.22306824 -4.99169922 27.93847656 C-6.55057047 34.2004305 -8.05350269 40.47588205 -9.5625 46.75 C-9.84955811 47.93634033 -10.13661621 49.12268066 -10.43237305 50.3449707 C-11.87446996 56.3051764 -13.30185836 62.26833523 -14.703125 68.23828125 C-14.97439209 69.38780273 -15.24565918 70.53732422 -15.52514648 71.72167969 C-16.0366237 73.89192907 -16.54417381 76.0631091 -17.04711914 78.23535156 C-17.27520264 79.20053711 -17.50328613 80.16572266 -17.73828125 81.16015625 C-17.93462158 82.00199463 -18.13096191 82.84383301 -18.33325195 83.71118164 C-18.99517948 85.98345206 -19.87339117 87.92385073 -21 90 C-20.27643663 80.88310149 -18.65707093 71.98361723 -17 63 C-16.34 63 -15.68 63 -15 63 C-15.04125 61.948125 -15.0825 60.89625 -15.125 59.8125 C-15 56 -15 56 -14.08203125 53.81640625 C-12.34424494 49.29314297 -11.90243289 44.5507933 -11.23242188 39.76953125 C-10.46829226 34.74569565 -9.0519051 30.6822728 -7 26 C-6.56853599 23.76353564 -6.21086584 21.51123974 -5.9375 19.25 C-5.21352313 13.3202847 -5.21352313 13.3202847 -3 10 C-2.58992103 8.47225481 -2.23847459 6.9279277 -1.9375 5.375 C-1.10060362 1.10060362 -1.10060362 1.10060362 0 0 Z " fill="#903F3C" transform="translate(545,454)"/>
<path d="M0 0 C0.66 0 1.32 0 2 0 C-1.25369315 14.88700945 -4.74985807 29.70938753 -8.3359375 44.51953125 C-13.03933197 63.97867308 -17.5197913 83.48849657 -22 103 C-23.046875 101.16015625 -23.046875 101.16015625 -24 99 C-23.40781343 96.97669589 -22.72045764 94.9812585 -22 93 C-21.63818194 91.23476645 -21.3074894 89.46300333 -21 87.6875 C-19.94798976 81.63022228 -18.79060363 75.64915976 -17.03125 69.75390625 C-15.73966531 65.05234229 -14.93339518 60.32835304 -14.14453125 55.52148438 C-13.21411607 50.21411607 -13.21411607 50.21411607 -11 48 C-10.45930192 45.45099475 -10.01484149 42.94733096 -9.625 40.375 C-8.21484263 31.77532188 -6.2383487 23.41684644 -4 15 C-3.81228027 14.28875977 -3.62456055 13.57751953 -3.43115234 12.84472656 C-2.29994125 8.55974884 -1.15567505 4.27845657 0 0 Z " fill="#91413F" transform="translate(522,547)"/>
<path d="M0 0 C0.33 0 0.66 0 1 0 C1.02916504 0.54599854 1.05833008 1.09199707 1.08837891 1.65454102 C1.92088451 15.80860711 4.33377418 28.87946301 8.28027344 42.48681641 C8.91302396 44.69629195 9.50421666 46.90944736 10.0703125 49.13671875 C11.91294943 56.17435306 14.40566427 62.29645733 17.92578125 68.671875 C18.45751953 69.82429688 18.45751953 69.82429688 19 71 C18.67 71.66 18.34 72.32 18 73 C14.73143307 71.23320706 13.2232274 69.66335591 12.03515625 66.1328125 C11.51848317 63.98900481 11.03188539 61.8376875 10.578125 59.6796875 C10.125733 57.04435878 10.125733 57.04435878 9 55 C8.960008 53.00039988 8.95653201 50.99952758 9 49 C8.01 48.67 7.02 48.34 6 48 C5.12109375 45.8125 5.12109375 45.8125 4.4375 43 C4.19128906 41.99839844 3.94507813 40.99679687 3.69140625 39.96484375 C3.46324219 38.98644531 3.23507812 38.00804687 3 37 C2.80277344 36.23816406 2.60554687 35.47632813 2.40234375 34.69140625 C-0.41408384 23.32138376 -0.13281855 11.62900164 0 0 Z " fill="#974540" transform="translate(750,426)"/>
<path d="M0 0 C0.99 1.98 0.99 1.98 2 4 C1.34 4.33 0.68 4.66 0 5 C0 4.34 0 3.68 0 3 C-21.45 3 -42.9 3 -65 3 C-65 2.34 -65 1.68 -65 1 C-57.26333333 0.86912238 -49.52665915 0.73869822 -41.78997517 0.60884857 C-38.19730062 0.54853629 -34.60462882 0.48806943 -31.01196289 0.42724609 C-27.54308357 0.36852419 -24.07419758 0.31021253 -20.60530663 0.25218201 C-18.6416769 0.21922656 -16.67805426 0.18584929 -14.71443176 0.15246582 C-13.5135643 0.13244507 -12.31269684 0.11242432 -11.07543945 0.09179688 C-10.02064896 0.07403198 -8.96585846 0.05626709 -7.87910461 0.03796387 C-5.25228437 0.00332662 -2.62700307 -0.00710844 0 0 Z " fill="#883B38" transform="translate(644,310)"/>
<path d="M0 0 C1.8253125 0.0309375 1.8253125 0.0309375 3.6875 0.0625 C3.6875 0.3925 3.6875 0.7225 3.6875 1.0625 C2.97722656 1.19527344 2.26695312 1.32804687 1.53515625 1.46484375 C0.61605469 1.64144531 -0.30304688 1.81804687 -1.25 2 C-2.62478516 2.26103516 -2.62478516 2.26103516 -4.02734375 2.52734375 C-6.26539844 2.83964988 -6.26539844 2.83964988 -7.3125 4.0625 C-7.43777187 6.95315236 -7.49860202 9.82106787 -7.51782227 12.71313477 C-7.52772186 13.62036285 -7.53762146 14.52759094 -7.54782104 15.46231079 C-7.57953595 18.47614894 -7.60423278 21.49000289 -7.62890625 24.50390625 C-7.64946716 26.58756431 -7.67046339 28.67121811 -7.69187927 30.75486755 C-7.74718909 36.25068731 -7.79655894 41.74654526 -7.84472656 47.24243164 C-7.8948767 52.84590064 -7.95059655 58.44931388 -8.00585938 64.05273438 C-8.11354986 75.055942 -8.21497048 86.05919795 -8.3125 97.0625 C-3.0325 97.7225 2.2475 98.3825 7.6875 99.0625 C7.6875 99.3925 7.6875 99.7225 7.6875 100.0625 C6.35429321 100.09027514 5.02090287 100.10923341 3.6875 100.125 C2.945 100.13660156 2.2025 100.14820313 1.4375 100.16015625 C-2.16219573 100.03232615 -5.73835009 99.50926874 -9.3125 99.0625 C-9.3125 66.7225 -9.3125 34.3825 -9.3125 1.0625 C-5.83919872 0.36783974 -3.39947137 -0.05761816 0 0 Z " fill="#FEEEEA" transform="translate(178.3125,502.9375)"/>
<path d="M0 0 C37.24818013 -0.27509734 37.24818013 -0.27509734 49 3 C50.9347904 3.32885956 52.87266663 3.63982736 54.8125 3.9375 C62.08795774 5.10858128 69.45774727 6.48656798 76 10 C74.296875 11.10546875 74.296875 11.10546875 72 12 C69.765625 11.42578125 69.765625 11.42578125 67.25 10.3125 C60.72299331 7.72435449 54.14525561 6.50563414 47.24560547 5.37744141 C45.63714622 5.10709155 44.03224944 4.81520249 42.43017578 4.50927734 C33.56560638 2.88003951 24.73253665 2.35352174 15.75 1.875 C14.21480982 1.78835959 12.67965312 1.70112379 11.14453125 1.61328125 C7.43004728 1.40200647 3.71517875 1.19873075 0 1 C0 0.67 0 0.34 0 0 Z " fill="#984947" transform="translate(704,160)"/>
<path d="M0 0 C0.66 0 1.32 0 2 0 C10.24072311 25.05179825 7.22532815 54.02833122 7 80 C6.67 80 6.34 80 6 80 C5.98541748 79.1020874 5.97083496 78.2041748 5.95581055 77.27905273 C5.48895229 51.29500887 3.83989751 25.73245933 0 0 Z " fill="#924441" transform="translate(846,252)"/>
<path d="M0 0 C0.66 0.33 1.32 0.66 2 1 C0.125 7.75 0.125 7.75 -1 10 C-1.66 10 -2.32 10 -3 10 C-3 11.98 -3 13.96 -3 16 C-4.65 16.66 -6.3 17.32 -8 18 C-8 19.32 -8 20.64 -8 22 C-9.61395301 23.86613317 -11.15350114 25.38818805 -13 27 C-13.65097656 27.57234375 -14.30195313 28.1446875 -14.97265625 28.734375 C-16.35501148 29.94361285 -17.74038874 31.14940557 -19.12890625 32.3515625 C-21.17403506 34.15332526 -23.11249792 36.033852 -25 38 C-25.99 37.67 -26.98 37.34 -28 37 C-27.40574219 36.52433594 -26.81148438 36.04867187 -26.19921875 35.55859375 C-14.62966114 25.78834526 -6.66346538 13.48612617 0 0 Z " fill="#953D3A" transform="translate(343,495)"/>
<path d="M0 0 C0.33 0 0.66 0 1 0 C1.04487549 0.84369141 1.08975098 1.68738281 1.13598633 2.55664062 C2.06523066 19.61863124 3.32274638 36.50316246 5.66845703 53.44042969 C6.20947575 57.61718981 6.61114595 61.80669722 7 66 C6.67 65.34 6.34 64.68 6 64 C5.34 64 4.68 64 4 64 C3.92652344 62.82244141 3.92652344 62.82244141 3.8515625 61.62109375 C3.38880314 54.98493133 3.38880314 54.98493133 2 48.5 C-0.98493589 38.05272438 -0.12465018 26.53598734 -0.0625 15.75 C-0.05747043 14.21484522 -0.05291012 12.67968884 -0.04882812 11.14453125 C-0.03794839 7.4296533 -0.02076577 3.71483741 0 0 Z " fill="#8F3F3D" transform="translate(258,792)"/>
<path d="M0 0 C21.12 0 42.24 0 64 0 C63 10 63 10 61 14 C61 10.04 61 6.08 61 2 C41.53 2 22.06 2 2 2 C1.34 4.97 0.68 7.94 0 11 C-0.99 11.99 -1.98 12.98 -3 14 C-2.4618756 8.79813078 -1.69880437 5.09641312 0 0 Z " fill="#FCE8E4" transform="translate(580,313)"/>
<path d="M0 0 C0.99 0 1.98 0 3 0 C3 0.99 3 1.98 3 3 C3.66 3 4.32 3 5 3 C5.32613281 4.05058594 5.65226562 5.10117187 5.98828125 6.18359375 C6.42946377 7.60163213 6.87088605 9.01959592 7.3125 10.4375 C7.54179199 11.17379639 7.77108398 11.91009277 8.00732422 12.66870117 C9.17275722 16.39816902 10.35888199 20.11570624 11.625 23.8125 C12.08563782 25.20757453 12.54392376 26.60342755 13 28 C13.27972656 28.82242188 13.55945313 29.64484375 13.84765625 30.4921875 C16.20248638 38.04954931 16.31039404 45.12518813 16 53 C15.67 53 15.34 53 15 53 C14.88519287 52.31711914 14.77038574 51.63423828 14.65209961 50.93066406 C11.592898 33.08656672 7.25000497 16.58713259 0 0 Z " fill="#944340" transform="translate(342,608)"/>
<path d="M0 0 C0.33 0 0.66 0 1 0 C1 32.34 1 64.68 1 98 C0.01 97.67 -0.98 97.34 -2 97 C-1.505 96.01 -1.505 96.01 -1 95 C-0.87705231 92.01052961 -0.81421231 89.04288133 -0.79467773 86.05224609 C-0.78477814 85.12536484 -0.77487854 84.19848358 -0.76467896 83.24351501 C-0.7330118 80.17018211 -0.70828592 77.09683372 -0.68359375 74.0234375 C-0.66302873 71.89636832 -0.64203238 69.76930326 -0.62062073 67.64224243 C-0.56535342 62.03628884 -0.5159647 56.43029808 -0.46777344 50.82427979 C-0.4175924 45.10677777 -0.36188862 39.3893299 -0.30664062 33.671875 C-0.19900207 22.4479629 -0.09756978 11.22400383 0 0 Z " fill="#8E3333" transform="translate(661,848)"/>
<path d="M0 0 C1.20470069 3.52403587 0.78866577 5.96257427 -0.0390625 9.55859375 C-0.28769043 10.65776123 -0.53631836 11.75692871 -0.79248047 12.8894043 C-1.06721191 14.06027588 -1.34194336 15.23114746 -1.625 16.4375 C-1.89844238 17.6335083 -2.17188477 18.8295166 -2.45361328 20.06176758 C-3.29139486 23.71050767 -4.14310368 27.35570545 -5 31 C-5.25716797 32.09634766 -5.51433594 33.19269531 -5.77929688 34.32226562 C-7.16628447 40.21972217 -8.57373511 46.11192417 -10 52 C-10.66 51.67 -11.32 51.34 -12 51 C-11.18381063 41.83918797 -9.74739604 33.41170897 -6.82861328 24.67871094 C-4.56099889 17.85721124 -3 11.20060051 -3 4 C-2.34 3.67 -1.68 3.34 -1 3 C-0.67 2.01 -0.34 1.02 0 0 Z " fill="#913E3B" transform="translate(495,661)"/>
<path d="M0 0 C17.16649122 -0.61676016 36.23960726 0.38858147 51 10 C48.40432055 10.96136276 47.2304039 11.0768013 44.5625 10.1875 C43.716875 9.795625 42.87125 9.40375 42 9 C40.3364521 8.32558869 38.66933058 7.6599679 37 7 C35.9275 6.484375 34.855 5.96875 33.75 5.4375 C28.60211269 3.45601146 23.17850529 3.48740295 17.72753906 3.29077148 C12.08531407 3.08531407 12.08531407 3.08531407 11 2 C9.15108054 1.76636119 7.29511969 1.58696365 5.4375 1.4375 C4.42558594 1.35371094 3.41367187 1.26992188 2.37109375 1.18359375 C1.19740234 1.09271484 1.19740234 1.09271484 0 1 C0 0.67 0 0.34 0 0 Z " fill="#96413E" transform="translate(680,258)"/>
<path d="M0 0 C0 0.66 0 1.32 0 2 C-1.5159375 2.7425 -1.5159375 2.7425 -3.0625 3.5 C-6.99717118 5.72672061 -9.57352882 8.63039373 -12.421875 12.09765625 C-14 14 -14 14 -15.6015625 15.546875 C-19.89770261 20.01102059 -20.48486147 26.12742071 -21 32 C-21.99 32 -22.98 32 -24 32 C-22.51128086 20.11246658 -18.65836345 12.65960894 -9.5 4.875 C-3 0 -3 0 0 0 Z " fill="#943F3C" transform="translate(390,263)"/>
<path d="M0 0 C0 0.33 0 0.66 0 1 C-1.06847168 1.0501123 -2.13694336 1.10022461 -3.23779297 1.15185547 C-7.24518508 1.34182651 -11.25202875 1.54180269 -15.25878906 1.74462891 C-16.98489448 1.83064424 -18.71113298 1.91403441 -20.4375 1.99462891 C-32.8533345 2.5361225 -32.8533345 2.5361225 -45.08935547 4.58544922 C-47.62216957 5.13499156 -50.04052108 5.19884225 -52.625 5.125 C-53.46289062 5.10695313 -54.30078125 5.08890625 -55.1640625 5.0703125 C-55.76992188 5.04710937 -56.37578125 5.02390625 -57 5 C-53.92701437 1.92701437 -50.09004581 1.95472651 -45.9375 1.375 C-44.99825684 1.24311279 -44.05901367 1.11122559 -43.09130859 0.9753418 C-28.81821358 -0.77958413 -14.350623 -0.25490722 0 0 Z " fill="#964240" transform="translate(449,258)"/>
<path d="M0 0 C0.33 0 0.66 0 1 0 C1.11261934 6.08144434 0.68656524 11.96008146 0 18 C-0.09539062 18.87011719 -0.19078125 19.74023438 -0.2890625 20.63671875 C-0.52219655 22.75823857 -0.76055297 24.87918343 -1 27 C-1.66 27 -2.32 27 -3 27 C-2.99476318 27.62044189 -2.98952637 28.24088379 -2.98413086 28.88012695 C-2.96334534 31.69090767 -2.95033483 34.50167221 -2.9375 37.3125 C-2.92912109 38.28896484 -2.92074219 39.26542969 -2.91210938 40.27148438 C-2.90888672 41.20927734 -2.90566406 42.14707031 -2.90234375 43.11328125 C-2.89710693 43.97735596 -2.89187012 44.84143066 -2.88647461 45.73168945 C-3 48 -3 48 -4 51 C-4.22797562 53.73289293 -4.41668187 56.45042204 -4.5625 59.1875 C-4.60568359 59.93708984 -4.64886719 60.68667969 -4.69335938 61.45898438 C-4.79922685 63.30578375 -4.9000976 65.15286834 -5 67 C-5.33 67 -5.66 67 -6 67 C-6.51503938 44.33826739 -3.90776056 22.29755662 0 0 Z " fill="#F1D5D3" transform="translate(265,247)"/>
<path d="M0 0 C0.33 0 0.66 0 1 0 C1.31827703 4.791297 1.6301317 9.58299201 1.9375 14.375 C1.98357391 15.09174896 2.02964783 15.80849792 2.07711792 16.54696655 C2.79049092 27.73188703 3.33388827 38.90873173 3.65795898 50.11279297 C3.68962158 51.1132666 3.72128418 52.11374023 3.75390625 53.14453125 C3.77783447 54.01440674 3.8017627 54.88428223 3.82641602 55.78051758 C3.92376018 58.17343913 3.92376018 58.17343913 5 61 C4.91382274 63.232269 4.76077759 65.46238486 4.5625 67.6875 C4.46066406 68.86699219 4.35882812 70.04648437 4.25390625 71.26171875 C4.17011719 72.16535156 4.08632813 73.06898438 4 74 C3.67 74 3.34 74 3 74 C2.5639218 66.83701835 2.13790808 59.67348436 1.71826172 52.50952148 C1.5749658 50.08230656 1.42952721 47.65521698 1.28173828 45.22827148 C0.36414047 30.13160272 -0.22058503 15.12539272 0 0 Z " fill="#FEEDE9" transform="translate(747,352)"/>
<path d="M0 0 C1.50747858 3.96750884 0.51035782 7.13109986 -0.43359375 11.171875 C-0.59038101 11.8542926 -0.74716827 12.53671021 -0.90870667 13.23980713 C-1.40981473 15.41194412 -1.92346009 17.58089096 -2.4375 19.75 C-2.78012868 21.22506745 -3.12193512 22.70032615 -3.46289062 24.17578125 C-4.29907554 27.78611951 -5.14652695 31.39370454 -6 35 C-8.24035923 31.00864328 -8.04815085 28.32002918 -7.625 23.75 C-7.51414062 22.48671875 -7.40328125 21.2234375 -7.2890625 19.921875 C-7.19367187 18.95765625 -7.09828125 17.9934375 -7 17 C-6.34 17 -5.68 17 -5 17 C-5.103125 16.05125 -5.20625 15.1025 -5.3125 14.125 C-5.36705411 8.81142972 -2.54136995 4.51093167 0 0 Z " fill="#963634" transform="translate(553,419)"/>
<path d="M0 0 C0.66 0 1.32 0 2 0 C1.67 2.64 1.34 5.28 1 8 C-20.12 8 -41.24 8 -63 8 C-62.67 5.69 -62.34 3.38 -62 1 C-60 4 -60 4 -60 7 C-40.53 6.67 -21.06 6.34 -1 6 C-0.67 4.02 -0.34 2.04 0 0 Z " fill="#FCE7E5" transform="translate(532,769)"/>
<path d="M0 0 C0 0.99 0 1.98 0 3 C-0.99 3.495 -0.99 3.495 -2 4 C-2 5.32 -2 6.64 -2 8 C0.97 8.495 0.97 8.495 4 9 C3.67 10.32 3.34 11.64 3 13 C3.721875 13.2475 4.44375 13.495 5.1875 13.75 C8.27606582 15.12269592 10.51011418 16.72353296 13 19 C13 19.66 13 20.32 13 21 C14.65 21.66 16.3 22.32 18 23 C17.34 23.66 16.68 24.32 16 25 C15.10539062 24.27554688 14.21078125 23.55109375 13.2890625 22.8046875 C6.46309136 17.32896045 -0.29313796 12.20858595 -8 8 C-6.20953589 3.86281109 -3.83902629 2.33679861 0 0 Z " fill="#954341" transform="translate(297,546)"/>
<path d="M0 0 C4.07017989 3.45080469 8.0617816 6.96149908 12 10.5625 C15.83325799 14.03236044 19.71487219 17.11219648 24 20 C21 21 21 21 18 20 C16.31126121 18.35570171 14.64694485 16.68615782 13 15 C10.67930035 12.57583999 10.67930035 12.57583999 8 11 C4.75706416 11.13617572 4.75706416 11.13617572 2 12 C1.33333333 8 0.66666667 4 0 0 Z " fill="#94322F" transform="translate(784,522)"/>
<path d="M0 0 C0.33 0 0.66 0 1 0 C2.04988332 5.80598125 2.46767943 8.99112972 -1 14 C-1.3790622 15.27899403 -1.70877361 16.57319315 -2 17.875 C-3.17863332 23.07080854 -5.02640729 27.53961093 -8 32 C-8.66 32 -9.32 32 -10 32 C-10 32.66 -10 33.32 -10 34 C-10.66 33.67 -11.32 33.34 -12 33 C-11.74307373 32.46221924 -11.48614746 31.92443848 -11.22143555 31.37036133 C-6.34359853 21.08002455 -1.79858056 11.32899021 0 0 Z " fill="#984341" transform="translate(845,856)"/>
<path d="M0 0 C0.66 0.33 1.32 0.66 2 1 C1.56429688 1.80179688 1.12859375 2.60359375 0.6796875 3.4296875 C-6.18556252 16.53607391 -11.31859741 30.21525312 -13 45 C-13.33 45 -13.66 45 -14 45 C-14.43419661 31.32280672 -10.4424747 18.02595276 -4 6 C-3.62875 5.030625 -3.2575 4.06125 -2.875 3.0625 C-2 1 -2 1 0 0 Z " fill="#903F3D" transform="translate(277,214)"/>
<path d="M0 0 C1.2375 0.4125 2.475 0.825 3.75 1.25 C16.80325938 5.1622695 30.50202647 7.30157949 44 9 C44 9.33 44 9.66 44 10 C37.44710219 10.2113838 31.07314104 9.81081008 24.5625 9.125 C23.37261475 9.00729248 23.37261475 9.00729248 22.15869141 8.88720703 C18.42427079 8.470494 16.17507836 8.11671891 13 6 C9.88900153 5.19484999 6.76195702 4.53877995 3.6171875 3.87890625 C2.75351562 3.58886719 1.88984375 3.29882812 1 3 C0.67 2.01 0.34 1.02 0 0 Z " fill="#903B3A" transform="translate(334,934)"/>
<path d="M0 0 C0.66 0 1.32 0 2 0 C2 0.99 2 1.98 2 3 C22.79 3.33 43.58 3.66 65 4 C65 4.33 65 4.66 65 5 C56.98530167 5.04635629 48.97065943 5.08188589 40.95586014 5.10362434 C37.2341971 5.11405811 33.51262584 5.12820982 29.79101562 5.15087891 C26.19893238 5.1726219 22.60693737 5.18457169 19.0147934 5.18975449 C17.64487062 5.19344764 16.27495262 5.20065945 14.90506744 5.21146011 C12.98526221 5.22599349 11.06536804 5.22681708 9.14550781 5.22705078 C8.05296692 5.231492 6.96042603 5.23593323 5.83477783 5.24050903 C3.02617009 5.00222033 1.38358455 4.45414413 -1 3 C-0.67 2.01 -0.34 1.02 0 0 Z " fill="#8F3430" transform="translate(467,774)"/>
<path d="M0 0 C0.33 0 0.66 0 1 0 C1.06058594 0.68707031 1.12117188 1.37414062 1.18359375 2.08203125 C1.26738281 2.98308594 1.35117187 3.88414062 1.4375 4.8125 C1.51871094 5.70582031 1.59992188 6.59914063 1.68359375 7.51953125 C1.93489767 10.12743559 1.93489767 10.12743559 3 13 C3.0846817 15.51368055 3.11601885 17.99869374 3.09765625 20.51171875 C3.0962413 21.23994339 3.09482635 21.96816803 3.09336853 22.71846008 C3.08777659 25.04151539 3.07522562 27.36447388 3.0625 29.6875 C3.05748396 31.26367048 3.05292123 32.83984248 3.04882812 34.41601562 C3.0378098 38.27738098 3.02055074 42.13867408 3 46 C2.67 46 2.34 46 2 46 C0.47693222 30.61944585 -0.27380247 15.45462851 0 0 Z " fill="#F9E7E2" transform="translate(259,789)"/>
<path d="M0 0 C0.66 0 1.32 0 2 0 C1.22509143 10.65499288 -2.8672678 18.88385932 -11 26 C-13.25 26.75 -13.25 26.75 -15 27 C-14.505 25.515 -14.505 25.515 -14 24 C-13.34 23.71125 -12.68 23.4225 -12 23.125 C-9.70849401 22.1446618 -9.70849401 22.1446618 -9.25 19.375 C-9.1675 18.59125 -9.085 17.8075 -9 17 C-7.68 17 -6.36 17 -5 17 C-4.67 15.02 -4.34 13.04 -4 11 C-3.34 11 -2.68 11 -2 11 C-1.34 7.37 -0.68 3.74 0 0 Z " fill="#913E3A" transform="translate(742,810)"/>
<path d="M0 0 C7.75995567 0.27420338 15.11568433 1.27513469 22.6875 2.9375 C23.47753418 3.10733398 24.26756836 3.27716797 25.08154297 3.45214844 C30.74741678 4.74741678 30.74741678 4.74741678 33 7 C25.56410256 6.1025641 25.56410256 6.1025641 22.25 5.5 C18.37606544 4.90401007 14.53549698 4.65317841 10.625 4.4375 C9.88894531 4.39431641 9.15289062 4.35113281 8.39453125 4.30664062 C6.59651932 4.20156201 4.79828042 4.10037907 3 4 C3 3.34 3 2.68 3 2 C2.01 2 1.02 2 0 2 C0 1.34 0 0.68 0 0 Z " fill="#954341" transform="translate(173,602)"/>
<path d="M0 0 C0.495 0.99 0.495 0.99 1 2 C0.67 2.66 0.34 3.32 0 4 C-2.00268555 4.59423828 -2.00268555 4.59423828 -4.63671875 5.0703125 C-6.08292603 5.33183105 -6.08292603 5.33183105 -7.55834961 5.59863281 C-9.10727905 5.85918457 -9.10727905 5.85918457 -10.6875 6.125 C-11.72720947 6.30385742 -12.76691895 6.48271484 -13.83813477 6.66699219 C-21.64760159 7.9395832 -29.08347017 8.4939256 -37 8 C-37 7.67 -37 7.34 -37 7 C-36.37657715 6.93006836 -35.7531543 6.86013672 -35.11083984 6.78808594 C-23.0737806 5.408493 -11.51205208 3.93045799 0 0 Z " fill="#974946" transform="translate(768,936)"/>
<path d="M0 0 C2.0622048 -0.054348 4.12482816 -0.09294961 6.1875 -0.125 C7.33605469 -0.14820313 8.48460937 -0.17140625 9.66796875 -0.1953125 C12.97032535 -0.00173943 15.01444928 0.66539951 18 2 C20.2630945 2.54955415 22.53058454 2.99380497 24.81640625 3.4375 C27.08441284 4.02174499 28.94806938 4.88330306 31 6 C29.296875 7.10546875 29.296875 7.10546875 27 8 C24.765625 7.42578125 24.765625 7.42578125 22.25 6.3125 C15.03652145 3.42515105 7.6284553 2.263433 0 1 C0 0.67 0 0.34 0 0 Z " fill="#95413F" transform="translate(749,164)"/>
<path d="M0 0 C2.91417925 3.37297132 4.2344084 7.00291603 5.5625 11.1875 C5.77793457 11.85442871 5.99336914 12.52135742 6.21533203 13.20849609 C10.76575036 27.52617389 10.76575036 27.52617389 9 33 C8.67 33 8.34 33 8 33 C7.70996094 31.60587891 7.70996094 31.60587891 7.4140625 30.18359375 C5.83972265 22.47318989 5.83972265 22.47318989 3.8125 14.875 C3 12 3 12 3 8 C1.68 7.67 0.36 7.34 -1 7 C-0.67 4.69 -0.34 2.38 0 0 Z " fill="#93423F" transform="translate(244,645)"/>
<path d="M0 0 C-0.47832275 0.33209473 -0.95664551 0.66418945 -1.44946289 1.00634766 C-3.65654353 2.54200917 -5.85952079 4.0834612 -8.0625 5.625 C-8.81466797 6.14707031 -9.56683594 6.66914062 -10.34179688 7.20703125 C-15.13752355 10.57026814 -19.6119267 14.11891525 -24 18 C-23.49396008 15.83125748 -23.00016187 14.00032373 -22 12 C-21.01 11.67 -20.02 11.34 -19 11 C-18.484375 10.484375 -17.96875 9.96875 -17.4375 9.4375 C-16.963125 8.963125 -16.48875 8.48875 -16 8 C-15.34 8 -14.68 8 -14 8 C-13.93554688 7.39800781 -13.87109375 6.79601562 -13.8046875 6.17578125 C-12.66399661 3.09148598 -11.04255331 2.58707992 -8.125 1.1875 C-7.24070312 0.74792969 -6.35640625 0.30835938 -5.4453125 -0.14453125 C-3 -1 -3 -1 0 0 Z " fill="#94423F" transform="translate(818,556)"/>
<path d="M0 0 C0.33 0 0.66 0 1 0 C1.04487549 0.58789307 1.08975098 1.17578613 1.13598633 1.78149414 C2.07038007 13.7145051 3.27367143 25.33131373 6 37 C5.34 37 4.68 37 4 37 C-0.77702735 25.10249791 -0.1439309 12.60194991 0 0 Z " fill="#984C49" transform="translate(750,426)"/>
<path d="M0 0 C0 0.33 0 0.66 0 1 C-14.37698562 2.89884716 -28.50794151 3.24187541 -43 3 C-43 2.67 -43 2.34 -43 2 C-14.06736359 -0.38776806 -14.06736359 -0.38776806 0 0 Z " fill="#ECCDCB" transform="translate(416,160)"/>
<path d="M0 0 C0 0.99 0 1.98 0 3 C-0.99 3.33 -1.98 3.66 -3 4 C-3 4.66 -3 5.32 -3 6 C-4.98 6.33 -6.96 6.66 -9 7 C-9.33 7.99 -9.66 8.98 -10 10 C-12.50390625 10.94921875 -12.50390625 10.94921875 -15.5625 11.6875 C-17.08037109 12.06455078 -17.08037109 12.06455078 -18.62890625 12.44921875 C-19.41136719 12.63097656 -20.19382812 12.81273437 -21 13 C-21.33 12.34 -21.66 11.68 -22 11 C-21.36908447 10.70230713 -20.73816895 10.40461426 -20.08813477 10.09790039 C-17.24520648 8.7549767 -14.40383849 7.40878385 -11.5625 6.0625 C-10.56927734 5.59392578 -9.57605469 5.12535156 -8.55273438 4.64257812 C-7.60849609 4.19462891 -6.66425781 3.74667969 -5.69140625 3.28515625 C-4.81685791 2.87144775 -3.94230957 2.45773926 -3.04125977 2.03149414 C-1.05916587 1.16323059 -1.05916587 1.16323059 0 0 Z " fill="#953F3C" transform="translate(801,921)"/>
<path d="M0 0 C0.66 0.33 1.32 0.66 2 1 C1.2575 1.556875 0.515 2.11375 -0.25 2.6875 C-3.0656117 4.89776474 -3.0656117 4.89776474 -5.125 7.6875 C-7 10 -7 10 -10 11 C-11.34270821 12.99371825 -12.67653494 14.9934562 -14 17 C-14.66 17 -15.32 17 -16 17 C-16 17.66 -16 18.32 -16 19 C-16.66 19 -17.32 19 -18 19 C-18 19.66 -18 20.32 -18 21 C-18.66 21 -19.32 21 -20 21 C-16.09930726 12.11622333 -7.71524805 5.50828584 0 0 Z " fill="#F5DBD9" transform="translate(304,187)"/>
<path d="M0 0 C0 0.33 0 0.66 0 1 C-0.83660156 1.15855469 -1.67320312 1.31710938 -2.53515625 1.48046875 C-10.63588133 3.10420213 -18.1658074 5.28450364 -25.91796875 8.109375 C-29 9 -29 9 -32 8 C-31.34 7.67 -30.68 7.34 -30 7 C-30 6.34 -30 5.68 -30 5 C-28.865625 4.896875 -27.73125 4.79375 -26.5625 4.6875 C-22.51513022 4.19321944 -18.92827658 3.04524264 -15.09375 1.69921875 C-10.06757785 0.0207023 -5.26249765 -0.10524995 0 0 Z " fill="#964644" transform="translate(362,164)"/>
<path d="M0 0 C0.33 0 0.66 0 1 0 C1.48128247 3.79140116 1.95963127 7.58316718 2.4375 11.375 C2.57220703 12.43589844 2.70691406 13.49679687 2.84570312 14.58984375 C3.6584624 21.05227119 4.39073956 27.51514451 5 34 C4.67 33.34 4.34 32.68 4 32 C3.34 32 2.68 32 2 32 C1.90912109 30.71802734 1.90912109 30.71802734 1.81640625 29.41015625 C1.73261719 28.30542969 1.64882813 27.20070313 1.5625 26.0625 C1.48128906 24.96035156 1.40007812 23.85820313 1.31640625 22.72265625 C1.29581916 20.08890097 1.29581916 20.08890097 0 19 C-0.08651611 17.58429877 -0.10704904 16.164405 -0.09765625 14.74609375 C-0.09443359 13.89208984 -0.09121094 13.03808594 -0.08789062 12.15820312 C-0.07951172 11.26037109 -0.07113281 10.36253906 -0.0625 9.4375 C-0.05798828 8.53580078 -0.05347656 7.63410156 -0.04882812 6.70507812 C-0.03700225 4.46998686 -0.0205222 2.23502563 0 0 Z " fill="#964D4B" transform="translate(260,824)"/>
<path d="M0 0 C1.32 0.33 2.64 0.66 4 1 C4 1.99 4 2.98 4 4 C4.66 4 5.32 4 6 4 C7.32 6.31 8.64 8.62 10 11 C10.99 11 11.98 11 13 11 C12.95875 11.928125 12.9175 12.85625 12.875 13.8125 C12.72863661 17.15809719 12.72863661 17.15809719 15 20 C14.34 20.66 13.68 21.32 13 22 C12.48050781 21.07058594 11.96101563 20.14117188 11.42578125 19.18359375 C7.88155774 12.88681469 4.32027132 6.80536459 0 1 C0 0.67 0 0.34 0 0 Z " fill="#933F3C" transform="translate(328,585)"/>
<path d="M0 0 C3 1 3 1 4.60546875 4.1328125 C5.14464671 5.45879088 5.67152048 6.78982335 6.1875 8.125 C6.46013672 8.77726563 6.73277344 9.42953125 7.01367188 10.1015625 C8.76924115 14.53668487 9.28264036 18.16370941 9 23 C8.34 23 7.68 23 7 23 C6.74605469 22.01 6.49210938 21.02 6.23046875 20 C4.46182957 13.18832581 2.66452425 6.52808442 0 0 Z " fill="#933C3A" transform="translate(838,227)"/>
<path d="M0 0 C0.33 0 0.66 0 1 0 C1.0588996 3.31242312 1.09389398 6.62470851 1.125 9.9375 C1.14175781 10.86369141 1.15851563 11.78988281 1.17578125 12.74414062 C1.21840994 18.81872962 0.53224502 24.11835079 -1 30 C-3.54298443 26.18552335 -2.8551008 23.7861762 -2.1875 19.5 C-1.98417782 18.06271129 -1.78236238 16.62520866 -1.58203125 15.1875 C-1.48100098 14.47980469 -1.3799707 13.77210938 -1.27587891 13.04296875 C-0.69101845 8.71189592 -0.35063069 4.35520228 0 0 Z " fill="#974642" transform="translate(359,431)"/>
<path d="M0 0 C0.66 0.33 1.32 0.66 2 1 C0.58564218 3.06411622 -0.83139852 5.12630317 -2.25 7.1875 C-2.64574219 7.76564453 -3.04148437 8.34378906 -3.44921875 8.93945312 C-5.83937782 12.40714292 -8.324996 15.74213963 -11 19 C-11 15.7 -11 12.4 -11 9 C-9.68 9 -8.36 9 -7 9 C-6.773125 8.443125 -6.54625 7.88625 -6.3125 7.3125 C-4.64103234 4.36753316 -2.44723648 2.31843456 0 0 Z " fill="#98413E" transform="translate(782,584)"/>
<path d="M0 0 C3.43445445 3.14889307 5.76194832 6.53174285 8.1875 10.5 C8.54263672 11.06847656 8.89777344 11.63695312 9.26367188 12.22265625 C11.01726435 15.09096121 12.45152339 17.66002306 13 21 C11 19.1875 11 19.1875 9 17 C9 16.01 9 15.02 9 14 C8.01 14.33 7.02 14.66 6 15 C2.93518276 10.26346427 1.2628938 5.47253979 0 0 Z " fill="#944140" transform="translate(231,624)"/>
<path d="M0 0 C0 0.66 0 1.32 0 2 C0.57105469 1.82726562 1.14210938 1.65453125 1.73046875 1.4765625 C4.13764954 0.97109597 5.88355349 1.05574238 8.3125 1.375 C9.09109375 1.47425781 9.8696875 1.57351563 10.671875 1.67578125 C11.44015625 1.78277344 12.2084375 1.88976562 13 2 C13.70640625 2.09667969 14.4128125 2.19335938 15.140625 2.29296875 C16.76160877 2.52030184 18.38101052 2.75887391 20 3 C20 3.66 20 4.32 20 5 C13.26795268 5.25645895 7.0986393 4.28162548 0.5 3 C-0.51320313 2.80921875 -1.52640625 2.6184375 -2.5703125 2.421875 C-5.04817439 1.95435389 -7.52458268 1.48026672 -10 1 C-6.1496895 -1.56687367 -4.41430237 -0.83288724 0 0 Z " fill="#F2D7D2" transform="translate(358,938)"/>
<path d="M0 0 C0.66 0.33 1.32 0.66 2 1 C2 4 2 4 0.125 6.4375 C-3.49575706 9.87043681 -8.23591172 11.70146974 -13 13 C-13.66 12.67 -14.32 12.34 -15 12 C-14.33613281 11.55269531 -13.67226563 11.10539063 -12.98828125 10.64453125 C-8.23971092 7.39332032 -3.87610945 4.2637204 0 0 Z " fill="#953E3B" transform="translate(818,908)"/>
<path d="M0 0 C0 0.33 0 0.66 0 1 C-0.61746094 1.18175781 -1.23492188 1.36351562 -1.87109375 1.55078125 C-2.71800781 1.80214844 -3.56492187 2.05351563 -4.4375 2.3125 C-5.34628906 2.58191406 -6.25507812 2.85132813 -7.19140625 3.12890625 C-10.50175781 4.15562169 -13.74882009 5.32612417 -16.9921875 6.546875 C-19.32888495 7.07422306 -20.74963718 6.74675717 -23 6 C-16.66435082 2.58849659 -7.20446002 -2.40148667 0 0 Z " fill="#973F3F" transform="translate(917,606)"/>
<path d="M0 0 C0 0.66 0 1.32 0 2 C-1.69270833 2.71614583 -3.38541667 3.43229167 -5.078125 4.1484375 C-7.00738717 4.94796856 -7.00738717 4.94796856 -8.6875 6.0625 C-12.27923229 7.51860769 -15.90775055 7.47207465 -19.75 7.625 C-20.93916016 7.68300781 -20.93916016 7.68300781 -22.15234375 7.7421875 C-24.10119416 7.836108 -26.05056451 7.91912822 -28 8 C-28 7.67 -28 7.34 -28 7 C-27.04480469 6.82984375 -26.08960938 6.6596875 -25.10546875 6.484375 C-17.80370065 5.11574848 -11.00384594 3.53516721 -4.07421875 0.76953125 C-2 0 -2 0 0 0 Z " fill="#F3DAD6" transform="translate(216,494)"/>
<path d="M0 0 C0.33 0.99 0.66 1.98 1 3 C-0.64169528 5.02054804 -2.30911778 7.02043058 -4 9 C-4 9.99 -4 10.98 -4 12 C-5.95890881 13.39300182 -7.9639118 14.72245446 -10 16 C-11.79394446 17.62351109 -11.79394446 17.62351109 -13 19 C-13 18.34 -13 17.68 -13 17 C-13.66 16.67 -14.32 16.34 -15 16 C-14.16855469 15.26394531 -13.33710938 14.52789062 -12.48046875 13.76953125 C-11.38251372 12.78418699 -10.28487407 11.79849123 -9.1875 10.8125 C-8.64029297 10.32974609 -8.09308594 9.84699219 -7.52929688 9.34960938 C-4.35712035 6.48503784 -2.00250792 3.84340994 0 0 Z " fill="#FAEAE5" transform="translate(236,474)"/>
<path d="M0 0 C1.87890625 0.67578125 1.87890625 0.67578125 4 2 C5.08984375 4.35546875 5.08984375 4.35546875 5.9375 7.1875 C7.61553456 12.28177226 9.75789623 15.76725341 13 20 C13 20.66 13 21.32 13 22 C13.66 22.33 14.32 22.66 15 23 C14.01 23 13.02 23 12 23 C10.09765625 20.5078125 10.09765625 20.5078125 8.0625 17.125 C7.71058594 16.54016846 7.35867188 15.95533691 6.99609375 15.3527832 C4.10912756 10.44159928 1.8501044 5.3920806 0 0 Z " fill="#924440" transform="translate(863,454)"/>
<path d="M0 0 C1.08360173 3.2508052 0.91331507 4.06917502 0.0625 7.25 C-0.92793465 11.31144677 -1.17733005 14.8327439 -1 19 C-2.32 19.33 -3.64 19.66 -5 20 C-4.36457662 13.13742745 -3.10915667 6.21831334 0 0 Z " fill="#923B38" transform="translate(575,604)"/>
<path d="M0 0 C3.3 0.33 6.6 0.66 10 1 C6.59501715 3.26998857 3.01850554 4.92252127 -0.6875 6.625 C-1.38939453 6.94984375 -2.09128906 7.2746875 -2.81445312 7.609375 C-4.54193738 8.40848336 -6.27083254 9.20454043 -8 10 C-8 9.01 -8 8.02 -8 7 C-5.36 5.68 -2.72 4.36 0 3 C0 2.01 0 1.02 0 0 Z " fill="#973935" transform="translate(321,172)"/>
<path d="M0 0 C0.33 0 0.66 0 1 0 C1.08166849 3.00056084 1.14081551 5.9988539 1.1875 9 C1.22520508 10.25876953 1.22520508 10.25876953 1.26367188 11.54296875 C1.33182365 17.40402129 0.36728835 21.63166106 -2 27 C-3.08130697 23.64207546 -2.92420653 21.05428704 -2.44140625 17.578125 C-2.30283203 16.55332031 -2.16425781 15.52851562 -2.02148438 14.47265625 C-1.87001953 13.40917969 -1.71855469 12.34570312 -1.5625 11.25 C-1.41490234 10.17105469 -1.26730469 9.09210937 -1.11523438 7.98046875 C-0.75020795 5.31930834 -0.37822581 2.65931106 0 0 Z " fill="#984F4B" transform="translate(849,828)"/>
<path d="M0 0 C0 0.66 0 1.32 0 2 C-4.91502758 3.29235715 -9.77290102 3.11135517 -14.8125 3.0625 C-15.69615234 3.05798828 -16.57980469 3.05347656 -17.49023438 3.04882812 C-19.66018559 3.03709866 -21.83010172 3.01916495 -24 3 C-24 2.67 -24 2.34 -24 2 C-21.12543208 1.66252452 -18.25043941 1.32989537 -15.375 1 C-14.16263672 0.85691406 -14.16263672 0.85691406 -12.92578125 0.7109375 C-8.59026261 0.21746383 -4.37262689 -0.11320717 0 0 Z " fill="#95403D" transform="translate(942,602)"/>
<path d="M0 0 C0.33 0 0.66 0 1 0 C1.21552718 11.23136083 1.02562659 21.91331161 -1 33 C-1.33 33 -1.66 33 -2 33 C-2.02691685 30.54159395 -2.04679802 28.08348118 -2.0625 25.625 C-2.07087891 24.92632812 -2.07925781 24.22765625 -2.08789062 23.5078125 C-2.11328125 18.2265625 -2.11328125 18.2265625 -1 16 C-0.7677354 13.28737884 -0.58063765 10.59226874 -0.4375 7.875 C-0.39431641 7.12089844 -0.35113281 6.36679687 -0.30664062 5.58984375 C-0.2005168 3.72678112 -0.09974999 1.86341476 0 0 Z " fill="#913430" transform="translate(362,408)"/>
<path d="M0 0 C0 3 0 3 -2.25 5.375 C-3.1575 6.24125 -4.065 7.1075 -5 8 C-5.928125 9.2065625 -5.928125 9.2065625 -6.875 10.4375 C-9.59165456 13.7134658 -12.71332315 16.31341864 -16 19 C-16.66 18.67 -17.32 18.34 -18 18 C-12 12 -6 6 0 0 Z " fill="#FAE5E0" transform="translate(801,567)"/>
<path d="M0 0 C1 2 1 2 0.25 4.4375 C-1 7 -1 7 -2.5 8.4375 C-4.24614391 10.02682537 -4.24614391 10.02682537 -4.9375 12.9375 C-6.08674137 16.25001923 -7.38267076 17.73164799 -10 20 C-10.33 19.34 -10.66 18.68 -11 18 C-9.8230753 15.62831842 -8.59997969 13.3950001 -7.25 11.125 C-6.8890625 10.49980469 -6.528125 9.87460938 -6.15625 9.23046875 C-4.27468591 6.00590421 -2.32227094 2.92488555 0 0 Z " fill="#F5E0DD" transform="translate(283,208)"/>
<path d="M0 0 C6.61823492 2.00552573 12.27965304 7.2644651 16 13 C15.67 13.99 15.34 14.98 15 16 C14.5875 15.50371094 14.175 15.00742188 13.75 14.49609375 C9.95488221 10.0317476 6.0066307 6.09850261 1.50390625 2.34765625 C1.00761719 1.90292969 0.51132812 1.45820313 0 1 C0 0.67 0 0.34 0 0 Z " fill="#914240" transform="translate(808,188)"/>
<path d="M0 0 C2.2058918 3.3088377 4.16317295 6.73177285 6.125 10.1875 C6.49753906 10.84169922 6.87007813 11.49589844 7.25390625 12.16992188 C8.17024716 13.77939244 9.08525436 15.38962222 10 17 C9.01 17 8.02 17 7 17 C2.9452599 12.9452599 1.16567713 9.72241501 0 4 C0 2.68 0 1.36 0 0 Z " fill="#964640" transform="translate(271,876)"/>
<path d="M0 0 C0.33 0 0.66 0 1 0 C1.41467342 8.01701946 -0.14060121 15.21930149 -2 23 C-2.33 23 -2.66 23 -3 23 C-3.49155247 14.93489832 -2.04937325 7.78273888 0 0 Z " fill="#913533" transform="translate(860,659)"/>
<path d="M0 0 C0.66 0 1.32 0 2 0 C1.01 3.96 0.02 7.92 -1 12 C-1.66 12 -2.32 12 -3 12 C-3 14.31 -3 16.62 -3 19 C-4.32 19.33 -5.64 19.66 -7 20 C-4.69 13.4 -2.38 6.8 0 0 Z " fill="#964945" transform="translate(351,474)"/>
<path d="M0 0 C0.66 0.33 1.32 0.66 2 1 C1.09636719 1.75925781 0.19273437 2.51851562 -0.73828125 3.30078125 C-1.92974813 4.30461555 -3.12115102 5.30852578 -4.3125 6.3125 C-5.20485352 7.06176758 -5.20485352 7.06176758 -6.11523438 7.82617188 C-6.69208984 8.31279297 -7.26894531 8.79941406 -7.86328125 9.30078125 C-8.39219971 9.74591064 -8.92111816 10.19104004 -9.46606445 10.6496582 C-11.04528627 12.03986605 -12.52812987 13.49726496 -14 15 C-14 13.68 -14 12.36 -14 11 C-13.34 10.67 -12.68 10.34 -12 10 C-11.67 9.01 -11.34 8.02 -11 7 C-6.66666667 4 -6.66666667 4 -4 4 C-3.67 3.01 -3.34 2.02 -3 1 C-2.01 0.67 -1.02 0.34 0 0 Z " fill="#903A38" transform="translate(302,187)"/>
<path d="M0 0 C0.33 0.66 0.66 1.32 1 2 C-0.23828125 4.29296875 -0.23828125 4.29296875 -2 7 C-2.79470703 8.32451172 -2.79470703 8.32451172 -3.60546875 9.67578125 C-5.0703125 12.1171875 -6.53515625 14.55859375 -8 17 C-9.32 16.34 -10.64 15.68 -12 15 C-11.38511719 14.33613281 -10.77023437 13.67226563 -10.13671875 12.98828125 C-9.32847656 12.10527344 -8.52023437 11.22226562 -7.6875 10.3125 C-6.48673828 9.00732422 -6.48673828 9.00732422 -5.26171875 7.67578125 C-3.18451663 5.21829688 -1.56168424 2.80496684 0 0 Z " fill="#964241" transform="translate(832,891)"/>
<path d="M0 0 C0.33 0 0.66 0 1 0 C0.67 5.61 0.34 11.22 0 17 C-1.98 17.99 -1.98 17.99 -4 19 C-2.89309248 12.59406714 -1.66054831 6.28636144 0 0 Z " fill="#994A47" transform="translate(548,710)"/>
<path d="M0 0 C0.33 0 0.66 0 1 0 C1.21432579 6.64409958 0.51233701 12.53205867 -1 19 C-1.99 19.33 -2.98 19.66 -4 20 C-2.82144268 13.29225357 -1.52351686 6.63818061 0 0 Z " fill="#944340" transform="translate(553,689)"/>
<path d="M0 0 C1.98 0 3.96 0 6 0 C6.12375 0.639375 6.2475 1.27875 6.375 1.9375 C6.684375 2.9584375 6.684375 2.9584375 7 4 C7.66 4.33 8.32 4.66 9 5 C9 5.66 9 6.32 9 7 C9.66 7 10.32 7 11 7 C11.33 8.65 11.66 10.3 12 12 C7.39523524 8.4477529 3.2413153 4.86197295 0 0 Z " fill="#96423F" transform="translate(314,571)"/>
<path d="M0 0 C0.33 0 0.66 0 1 0 C0.42978625 6.95660771 -1.01302694 13.31427305 -3 20 C-3.33 20 -3.66 20 -4 20 C-5.94281628 12.22873489 -3.39628641 7.05111365 0 0 Z " fill="#984342" transform="translate(569,353)"/>
<path d="M0 0 C2.44413389 3.08269139 4.33109524 6.28471111 6.1875 9.75 C6.71730469 10.73484375 7.24710938 11.7196875 7.79296875 12.734375 C8.19128906 13.48203125 8.58960938 14.2296875 9 15 C8.01 15.495 8.01 15.495 7 16 C7 15.01 7 14.02 7 13 C6.401875 12.7525 5.80375 12.505 5.1875 12.25 C2.55503205 10.7457326 1.4459032 9.67492092 0 7 C-0.1875 3.25 -0.1875 3.25 0 0 Z " fill="#9A4843" transform="translate(769,499)"/>
<path d="M0 0 C0.33 0 0.66 0 1 0 C0.64775091 7.85879863 -0.13498747 14.65062002 -3 22 C-3.33 22 -3.66 22 -4 22 C-3.51298949 14.40935336 -2.00236413 7.32940833 0 0 Z " fill="#994A49" transform="translate(640,330)"/>
<path d="M0 0 C0.33 0 0.66 0 1 0 C1.37634203 6.80203375 0.77471079 11.75690073 -2 18 C-2.66 18 -3.32 18 -4 18 C-2.83445193 11.9490696 -1.54656904 5.96533774 0 0 Z " fill="#8F3B39" transform="translate(635,352)"/>
<path d="M0 0 C4.29 0.33 8.58 0.66 13 1 C12.67 1.66 12.34 2.32 12 3 C13.32 3.99 14.64 4.98 16 6 C15.67 6.66 15.34 7.32 15 8 C10.05 5.69 5.1 3.38 0 1 C0 0.67 0 0.34 0 0 Z " fill="#9A4645" transform="translate(779,172)"/>
<path d="M0 0 C1.32676508 0.35858516 2.65835921 0.7018576 4 1 C4 1.66 4 2.32 4 3 C4.66 3 5.32 3 6 3 C6 3.66 6 4.32 6 5 C0.63904723 3.41078475 -4.70843973 1.81027062 -10 0 C-10 -0.33 -10 -0.66 -10 -1 C-5.88850267 -2.17471352 -3.84325282 -1.773809 0 0 Z " fill="#F5E2DC" transform="translate(337,932)"/>
<path d="M0 0 C1.51400391 0.01740234 1.51400391 0.01740234 3.05859375 0.03515625 C4.07050781 0.04417969 5.08242188 0.05320312 6.125 0.0625 C7.29869141 0.07990234 7.29869141 0.07990234 8.49609375 0.09765625 C5.02667546 2.41060178 2.7295846 2.67543654 -1.37890625 3.22265625 C-2.59320312 3.39023437 -3.8075 3.5578125 -5.05859375 3.73046875 C-7.91609193 4.03500937 -10.63596872 4.17398919 -13.50390625 4.09765625 C-13.50390625 3.43765625 -13.50390625 2.77765625 -13.50390625 2.09765625 C-12.79363281 2.03707031 -12.08335937 1.97648438 -11.3515625 1.9140625 C-9.97291016 1.78837891 -9.97291016 1.78837891 -8.56640625 1.66015625 C-7.64988281 1.57894531 -6.73335937 1.49773438 -5.7890625 1.4140625 C-3.03556738 1.03280933 -2.84964025 0.11114042 0 0 Z " fill="#F8E3DE" transform="translate(748.50390625,938.90234375)"/>
<path d="M0 0 C0.33 0 0.66 0 1 0 C1.37810444 5.04139251 0.54806876 9.60641642 -2 14 C-2.99 14.33 -3.98 14.66 -5 15 C-4.43174347 9.45949887 -2.37113483 4.96284034 0 0 Z " fill="#92403C" transform="translate(867,642)"/>
<path d="M0 0 C0 3.82021762 -0.59790018 5.01557295 -3 8 C-5.875776 9.68016949 -8.79939514 11.06471888 -12 12 C-12.66 11.67 -13.32 11.34 -14 11 C-13.07316406 10.28972656 -12.14632813 9.57945312 -11.19140625 8.84765625 C-9.98174158 7.91930895 -8.77210776 6.99092145 -7.5625 6.0625 C-6.95083984 5.59392578 -6.33917969 5.12535156 -5.70898438 4.64257812 C-2.75031115 2.44328176 -2.75031115 2.44328176 0 0 Z " fill="#954642" transform="translate(314,533)"/>
<path d="M0 0 C3.52238047 1.56367357 6.27123994 3.69495889 9.25 6.125 C10.14203125 6.84945312 11.0340625 7.57390625 11.953125 8.3203125 C12.62859375 8.87460937 13.3040625 9.42890625 14 10 C11 11 11 11 8 10 C6.29115995 8.37660195 4.62553283 6.70680947 3 5 C2.401875 4.443125 1.80375 3.88625 1.1875 3.3125 C0 2 0 2 0 0 Z " fill="#934341" transform="translate(794,532)"/>
<path d="M0 0 C0 0.99 0 1.98 0 3 C-1.62324086 3.22162329 -3.248721 3.42689803 -4.875 3.625 C-6.23238281 3.79902344 -6.23238281 3.79902344 -7.6171875 3.9765625 C-8.40351563 3.98429687 -9.18984375 3.99203125 -10 4 C-10.66 3.34 -11.32 2.68 -12 2 C-8.09971775 -0.60018816 -4.52565431 -0.15085514 0 0 Z " fill="#9C3F3D" transform="translate(188,499)"/>
<path d="M0 0 C1.65 0 3.3 0 5 0 C2.36923129 2.99999941 -0.74179832 4.72382055 -4.1875 6.6875 C-5.27417969 7.31011719 -6.36085938 7.93273437 -7.48046875 8.57421875 C-8.31191406 9.04472656 -9.14335938 9.51523437 -10 10 C-10.33 9.34 -10.66 8.68 -11 8 C-9.68 7.67 -8.36 7.34 -7 7 C-7 6.34 -7 5.68 -7 5 C-2.61538462 2 -2.61538462 2 0 2 C0 1.34 0 0.68 0 0 Z " fill="#F8E7E1" transform="translate(804,916)"/>
<path d="M0 0 C0 0.66 0 1.32 0 2 C-1.1446875 2.6496875 -1.1446875 2.6496875 -2.3125 3.3125 C-5.16040176 4.79169685 -5.16040176 4.79169685 -6.375 7.5625 C-8.65908711 10.98863066 -11.08650122 11.1877644 -15 12 C-12.01377035 7.71540964 -5.65866548 0 0 0 Z " fill="#954743" transform="translate(894,613)"/>
<path d="M0 0 C0.33 0 0.66 0 1 0 C0.91327254 2.79322218 0.80644643 5.58312528 0.6875 8.375 C0.66494141 9.1690625 0.64238281 9.963125 0.61914062 10.78125 C0.52214925 12.86215581 0.27005175 14.93441332 0 17 C-0.99 17.66 -1.98 18.32 -3 19 C-2.48446121 12.50149789 -1.53332291 6.33773468 0 0 Z " fill="#944240" transform="translate(605,474)"/>
<path d="M0 0 C0.66 0 1.32 0 2 0 C1.34 4.95 0.68 9.9 0 15 C-0.99 15 -1.98 15 -3 15 C-2.44854729 9.76119922 -1.57077907 5.02649303 0 0 Z " fill="#93443D" transform="translate(557,674)"/>
<path d="M0 0 C1.32 0.33 2.64 0.66 4 1 C5.17571451 4.67410785 5.07366746 8.16929183 5 12 C2.2289312 9.65408148 1.47940716 7.85223799 0.8125 4.3125 C0.65394531 3.50425781 0.49539063 2.69601562 0.33203125 1.86328125 C0.22246094 1.24839844 0.11289062 0.63351562 0 0 Z " fill="#963837" transform="translate(753,463)"/>
<path d="M0 0 C1.109375 1.5234375 1.109375 1.5234375 2 4 C1.54836159 6.66929879 1.01001088 9.04885923 0.25 11.625 C0.06695313 12.305625 -0.11609375 12.98625 -0.3046875 13.6875 C-1.16208562 16.74273555 -1.72252424 18.72252424 -4 21 C-3.29843593 13.84404654 -1.69214979 6.98144819 0 0 Z " fill="#F4DBD7" transform="translate(548,444)"/>
<path d="M0 0 C1.81293089 0.14037521 3.6253443 0.28744889 5.4375 0.4375 C6.95150391 0.55931641 6.95150391 0.55931641 8.49609375 0.68359375 C11 1 11 1 12 2 C13.34747084 2.23075082 14.70377565 2.41153063 16.0625 2.5625 C17.361875 2.706875 18.66125 2.85125 20 3 C16.73940847 5.17372769 15.82363954 5.1443958 12.1171875 4.4921875 C8.01668123 3.53893328 4.0078289 2.28218269 0 1 C0 0.67 0 0.34 0 0 Z " fill="#9B4F4C" transform="translate(902,496)"/>
<path d="M0 0 C0.33 0 0.66 0 1 0 C1.63019694 10.15317287 1.63019694 10.15317287 -1 13.6875 C-1.66 14.120625 -2.32 14.55375 -3 15 C-2.5547115 9.72684667 -1.91626837 4.98229776 0 0 Z " fill="#944642" transform="translate(612,447)"/>
<path d="M0 0 C-1.65783091 3.91850942 -4.10938356 6.90291096 -7 10 C-9.3125 10.875 -9.3125 10.875 -11 11 C-5.28846154 0 -5.28846154 0 0 0 Z " fill="#FBEAE5" transform="translate(827,898)"/>
<path d="M0 0 C0.66 0.66 1.32 1.32 2 2 C1.86328125 4.75 1.86328125 4.75 1.3125 8 C1.14363281 9.0725 0.97476563 10.145 0.80078125 11.25 C0 14 0 14 -3 16 C-2.40984815 10.49191603 -1.43336231 5.35121931 0 0 Z " fill="#F4DCD7" transform="translate(516,578)"/>
<path d="M0 0 C3.99881788 0.61520275 6.80358226 2.60268669 10 5 C10 5.66 10 6.32 10 7 C10.99 7.33 11.98 7.66 13 8 C12.01 8.495 12.01 8.495 11 9 C9.35050343 7.88037801 7.70550162 6.75413155 6.0625 5.625 C5.14597656 4.99851562 4.22945313 4.37203125 3.28515625 3.7265625 C1 2 1 2 0 0 Z " fill="#F4DDD8" transform="translate(300,914)"/>
<path d="M0 0 C3.38891322 0.68886787 6.18011613 1.98716486 9.25 3.5625 C10.14203125 4.01753906 11.0340625 4.47257812 11.953125 4.94140625 C12.96632813 5.46541016 12.96632813 5.46541016 14 6 C14 6.66 14 7.32 14 8 C8.76481294 6.56032356 4.36973991 4.18303389 0 1 C0 0.67 0 0.34 0 0 Z " fill="#944643" transform="translate(888,488)"/>
<path d="M0 0 C0.66 0 1.32 0 2 0 C0.68938409 4.23429756 -0.94356259 8.07407404 -3 12 C-3.33 12 -3.66 12 -4 12 C-4.50130606 6.73628638 -3.31168629 4.0909066 0 0 Z " fill="#94443F" transform="translate(769,603)"/>
<path d="M0 0 C0.33 0 0.66 0 1 0 C1.19392201 5.52677733 0.7479503 9.75614911 -1 15 C-1.66 15 -2.32 15 -3 15 C-2.22095672 4.44191344 -2.22095672 4.44191344 0 0 Z " fill="#8F3734" transform="translate(537,482)"/>
<path d="M0 0 C1.71056541 2.58430745 2.05220752 3.68321539 1.5390625 6.796875 C1.23742187 7.77140625 0.93578125 8.7459375 0.625 9.75 C0.32851563 10.73484375 0.03203125 11.7196875 -0.2734375 12.734375 C-0.51320313 13.48203125 -0.75296875 14.2296875 -1 15 C-1.33 15 -1.66 15 -2 15 C-2.19392201 9.47322267 -1.7479503 5.24385089 0 0 Z " fill="#F5DDD8" transform="translate(541,732)"/>
<path d="M0 0 C0.66 0.33 1.32 0.66 2 1 C0.125 7.75 0.125 7.75 -1 10 C-1.99 10 -2.98 10 -4 10 C-4 10.66 -4 11.32 -4 12 C-4.66 11.67 -5.32 11.34 -6 11 C-4.02 7.37 -2.04 3.74 0 0 Z " fill="#974643" transform="translate(343,495)"/>
<path d="M0 0 C2.31 0 4.62 0 7 0 C7 0.66 7 1.32 7 2 C5.40084119 2.69906942 3.79544955 3.38389468 2.1875 4.0625 C1.29417969 4.44535156 0.40085938 4.82820313 -0.51953125 5.22265625 C-3 6 -3 6 -6 5 C-4.02 4.01 -2.04 3.02 0 2 C0 1.34 0 0.68 0 0 Z " fill="#943C3A" transform="translate(209,492)"/>
<path d="M0 0 C0.99 0.66 1.98 1.32 3 2 C1.02 5.96 -0.96 9.92 -3 14 C-4.07349791 9.70600835 -3.79682816 8.80504787 -2 5 C-1.34 5 -0.68 5 0 5 C0 3.35 0 1.7 0 0 Z " fill="#954340" transform="translate(243,457)"/>
<path d="M0 0 C2.16987052 4.33974105 2.21096692 4.66070189 1 9 C0.649375 10.258125 0.29875 11.51625 -0.0625 12.8125 C-0.371875 13.864375 -0.68125 14.91625 -1 16 C-1.66 15.67 -2.32 15.34 -3 15 C-2.01 10.05 -1.02 5.1 0 0 Z " fill="#954643" transform="translate(619,416)"/>
<path d="M0 0 C1.44715727 3.87186448 0.5441918 6.8232328 -0.4375 10.75 C-0.86869141 12.50570313 -0.86869141 12.50570313 -1.30859375 14.296875 C-1.53675781 15.18890625 -1.76492188 16.0809375 -2 17 C-2.33 17 -2.66 17 -3 17 C-2.88597936 14.72858891 -2.75841495 12.45785448 -2.625 10.1875 C-2.55539062 8.92292969 -2.48578125 7.65835937 -2.4140625 6.35546875 C-2 3 -2 3 0 0 Z " fill="#914240" transform="translate(553,419)"/>
<path d="M0 0 C0.33 0 0.66 0 1 0 C1.20674944 5.78898419 0.59162079 10.42932723 -1 16 C-1.33 16 -1.66 16 -2 16 C-2.2358396 10.22192976 -1.86783046 5.48675196 0 0 Z " fill="#903936" transform="translate(556,403)"/>
<path d="M0 0 C5.36095277 1.58921525 10.70843973 3.18972938 16 5 C16 5.33 16 5.66 16 6 C9.51521334 5.74368432 5.04459475 5.24807979 0 1 C0 0.67 0 0.34 0 0 Z " fill="#FAE4E1" transform="translate(766,168)"/>
<path d="M0 0 C0 0.66 0 1.32 0 2 C-5.1468192 5.16727335 -9.158256 5.35050464 -15 5 C-12.18459435 3.52159064 -9.39290564 2.37423966 -6.375 1.375 C-5.21097656 0.98441406 -5.21097656 0.98441406 -4.0234375 0.5859375 C-2 0 -2 0 0 0 Z " fill="#EFD2CE" transform="translate(724,840)"/>
<path d="M0 0 C0.66 0 1.32 0 2 0 C-0.89066059 9.59453303 -0.89066059 9.59453303 -4 13 C-4.5497272 7.36529617 -2.95047835 4.61012242 0 0 Z " fill="#F9E6E2" transform="translate(345,486)"/>
<path d="M0 0 C0.33 0 0.66 0 1 0 C1.19286332 5.49660457 0.90303246 9.81952275 -1 15 C-1.99 15.495 -1.99 15.495 -3 16 C-2.40984815 10.49191603 -1.43336231 5.35121931 0 0 Z " fill="#F4DAD5" transform="translate(574,336)"/>
<path d="M0 0 C0.44730469 0.39832031 0.89460938 0.79664063 1.35546875 1.20703125 C4.74779939 4.17984125 8.01840224 6.8282194 12 9 C9 10 9 10 7.125 9.4375 C4.06600445 7.36817948 2.21944031 4.95925375 0 2 C0 1.34 0 0.68 0 0 Z " fill="#913F3E" transform="translate(296,911)"/>
<path d="M0 0 C1.17539996 0.92652701 2.34010577 1.86663387 3.5 2.8125 C4.1496875 3.33457031 4.799375 3.85664062 5.46875 4.39453125 C7 6 7 6 7 9 C3.535 7.02 3.535 7.02 0 5 C0 3.35 0 1.7 0 0 Z " fill="#944240" transform="translate(288,903)"/>
<path d="M0 0 C0.99 0.33 1.98 0.66 3 1 C2.02471263 2.33617352 1.04466681 3.6688751 0.0625 5 C-0.48277344 5.7425 -1.02804688 6.485 -1.58984375 7.25 C-2.28787109 8.11625 -2.28787109 8.11625 -3 9 C-3.33 9 -3.66 9 -4 9 C-4 7.02 -4 5.04 -4 3 C-2.68 2.67 -1.36 2.34 0 2 C0 1.34 0 0.68 0 0 Z " fill="#984140" transform="translate(236,471)"/>
<path d="M0 0 C2.75 -0.3125 2.75 -0.3125 6 0 C8.375 2.5 8.375 2.5 10 5 C9.67 5.66 9.34 6.32 9 7 C7.4972763 6.02501855 5.99788037 5.04490611 4.5 4.0625 C3.6646875 3.51722656 2.829375 2.97195312 1.96875 2.41015625 C1.3190625 1.94480469 0.669375 1.47945312 0 1 C0 0.67 0 0.34 0 0 Z " fill="#9C4948" transform="translate(796,180)"/>
<path d="M0 0 C0 0.99 0 1.98 0 3 C-0.99 3.33 -1.98 3.66 -3 4 C-3 4.66 -3 5.32 -3 6 C-5.64 6.33 -8.28 6.66 -11 7 C-7.54319097 4.23455278 -3.85658398 2.15078722 0 0 Z " fill="#9B4A48" transform="translate(801,921)"/>
<path d="M0 0 C4.21912747 0.4794463 6.79663178 1.16625119 10 4 C9.34 4.66 8.68 5.32 8 6 C5.36 4.68 2.72 3.36 0 2 C0 1.34 0 0.68 0 0 Z " fill="#98403E" transform="translate(382,836)"/>
<path d="M0 0 C4.41889613 1.35021826 6.34345343 3.26115668 9 7 C4.71193127 6.52354792 2.73352513 5.34097516 0 2 C0 1.34 0 0.68 0 0 Z " fill="#953E3C" transform="translate(219,615)"/>
<path d="M0 0 C0.66 0 1.32 0 2 0 C1.85892253 1.45880109 1.71197585 2.91703551 1.5625 4.375 C1.48128906 5.18710937 1.40007813 5.99921875 1.31640625 6.8359375 C1 9 1 9 0 11 C-0.66 11 -1.32 11 -2 11 C-1.34 7.37 -0.68 3.74 0 0 Z " fill="#9A4C4A" transform="translate(584,561)"/>
<path d="M0 0 C0.99 0 1.98 0 3 0 C3 0.66 3 1.32 3 2 C4.32 1.67 5.64 1.34 7 1 C7.66 3.31 8.32 5.62 9 8 C7.68388323 7.04663979 6.37221039 6.08714226 5.0625 5.125 C4.33160156 4.59132813 3.60070312 4.05765625 2.84765625 3.5078125 C1 2 1 2 0 0 Z " fill="#964846" transform="translate(878,480)"/>
<path d="M0 0 C0.66 0.66 1.32 1.32 2 2 C1.66302652 8.17784711 1.66302652 8.17784711 -0.5625 10.9375 C-1.036875 11.288125 -1.51125 11.63875 -2 12 C-1 3.42857143 -1 3.42857143 0 0 Z " fill="#F3DBD5" transform="translate(555,415)"/>
<path d="M0 0 C-2.96178773 1.67110042 -5.37071192 2.32682752 -8.75 2.625 C-9.54921875 2.69976563 -10.3484375 2.77453125 -11.171875 2.8515625 C-11.77515625 2.90054688 -12.3784375 2.94953125 -13 3 C-12.01 2.67 -11.02 2.34 -10 2 C-10 1.34 -10 0.68 -10 0 C-6.30458414 -0.95024979 -3.69541586 -0.95024979 0 0 Z " fill="#FAE9E1" transform="translate(918,604)"/>
<path d="M0 0 C0.66 0 1.32 0 2 0 C0.4169423 4.2742558 -2.50568404 6.26531794 -6 9 C-5.4409112 5.75728494 -4.5867822 4.06942576 -2 2 C-1.34 2 -0.68 2 0 2 C0 1.34 0 0.68 0 0 Z " fill="#954747" transform="translate(790,575)"/>
<path d="M0 0 C2 3 2 3 1.8125 6 C0.99790027 9.00775285 0.4044979 10.11821903 -2 12 C-1 3.42857143 -1 3.42857143 0 0 Z " fill="#994C49" transform="translate(615,433)"/>
<path d="M0 0 C0.99 0.33 1.98 0.66 3 1 C1.625 3 1.625 3 0 5 C-0.66 5 -1.32 5 -2 5 C-2 5.66 -2 6.32 -2 7 C-2.66 7 -3.32 7 -4 7 C-4 7.66 -4 8.32 -4 9 C-4.66 9 -5.32 9 -6 9 C-4.47291037 5.56404834 -2.40072955 2.88087546 0 0 Z " fill="#FAE9E8" transform="translate(290,199)"/>
<path d="M0 0 C2.49505962 2.49505962 2.35948376 3.67328888 2.625 7.125 C2.69976562 8.03507813 2.77453125 8.94515625 2.8515625 9.8828125 C2.92503906 10.93082031 2.92503906 10.93082031 3 12 C2.67 11.34 2.34 10.68 2 10 C1.34 10 0.68 10 0 10 C0 6.7 0 3.4 0 0 Z " fill="#91403C" transform="translate(262,846)"/>
<path d="M0 0 C0.33 0 0.66 0 1 0 C2.11658501 4.68965706 1.80619523 7.53763531 0 12 C-0.66 12 -1.32 12 -2 12 C-1 3.42857143 -1 3.42857143 0 0 Z " fill="#F2D8D5" transform="translate(538,486)"/>
<path d="M0 0 C2 1 2 1 3.125 4.25 C3.85463482 7.37700635 4.19234975 9.82622905 4 13 C3.34 13 2.68 13 2 13 C1.34 8.71 0.68 4.42 0 0 Z " fill="#943835" transform="translate(860,440)"/>
<path d="M0 0 C0.66 0.33 1.32 0.66 2 1 C1.67 4.63 1.34 8.26 1 12 C0.01 12 -0.98 12 -2 12 C-1.34 8.04 -0.68 4.08 0 0 Z " fill="#924240" transform="translate(643,317)"/>
<path d="M0 0 C0.33 0 0.66 0 1 0 C1 3.63 1 7.26 1 11 C0.01 11 -0.98 11 -2 11 C-1.34 7.37 -0.68 3.74 0 0 Z " fill="#954542" transform="translate(368,284)"/>
<path d="M0 0 C-3.41016497 2.86453858 -6.90694544 4.34703566 -11 6 C-11 5.01 -11 4.02 -11 3 C-7.14243493 0.84694043 -4.44870215 -0.39253254 0 0 Z " fill="#924542" transform="translate(324,176)"/>
<path d="M0 0 C0.66 0.33 1.32 0.66 2 1 C1.34 4.3 0.68 7.6 0 11 C-0.66 11 -1.32 11 -2 11 C-1.34 7.37 -0.68 3.74 0 0 Z " fill="#994F4B" transform="translate(569,623)"/>
<path d="M0 0 C2.64 1.65 5.28 3.3 8 5 C7.01 5.99 6.02 6.98 5 8 C0 2.25 0 2.25 0 0 Z " fill="#90433F" transform="translate(814,547)"/>
<path d="M0 0 C3.37462715 0.54723683 5.08235 1.0549 8 3 C8 3.66 8 4.32 8 5 C8.66 5 9.32 5 10 5 C9.67 5.66 9.34 6.32 9 7 C7.4972763 6.02501855 5.99788037 5.04490611 4.5 4.0625 C3.6646875 3.51722656 2.829375 2.97195313 1.96875 2.41015625 C1.3190625 1.94480469 0.669375 1.47945312 0 1 C0 0.67 0 0.34 0 0 Z " fill="#F6DED9" transform="translate(812,545)"/>
<path d="M0 0 C2 1 2 1 2.6328125 2.84765625 C2.79523437 3.57855469 2.95765625 4.30945313 3.125 5.0625 C3.29257812 5.79597656 3.46015625 6.52945312 3.6328125 7.28515625 C3.75398437 7.85105469 3.87515625 8.41695313 4 9 C3.01 9.495 3.01 9.495 2 10 C-0.4294516 6.3558226 -0.16179575 4.28758728 0 0 Z " fill="#944541" transform="translate(739,278)"/>
<path d="M0 0 C1.125 1.625 1.125 1.625 2 4 C1.16933916 7.46108684 0.52986895 9.47013105 -2 12 C-1 3.42857143 -1 3.42857143 0 0 Z " fill="#EFD4CF" transform="translate(509,607)"/>
<path d="M0 0 C0.33 0.99 0.66 1.98 1 3 C-1.97411124 4.23921302 -4.85262818 5.30058404 -8 6 C-3.375 0 -3.375 0 0 0 Z " fill="#96302D" transform="translate(302,545)"/>
<path d="M0 0 C1.32 0 2.64 0 4 0 C4 0.99 4 1.98 4 3 C5.32 3.33 6.64 3.66 8 4 C8.33 5.32 8.66 6.64 9 8 C7.68388323 7.04663979 6.37221039 6.08714226 5.0625 5.125 C4.33160156 4.59132813 3.60070312 4.05765625 2.84765625 3.5078125 C1 2 1 2 0 0 Z " fill="#F7E0DB" transform="translate(791,528)"/>
<path d="M0 0 C0.33 0.99 0.66 1.98 1 3 C1.66 3.33 2.32 3.66 3 4 C2.34 4 1.68 4 1 4 C1 4.66 1 5.32 1 6 C-1 7.625 -1 7.625 -3 9 C-3.66 8.67 -4.32 8.34 -5 8 C-3.35 5.36 -1.7 2.72 0 0 Z " fill="#FBEBE7" transform="translate(242,465)"/>
<path d="M0 0 C-2.68841859 2.25245881 -4.64641875 3.88213958 -8 5 C-7.625 3.0625 -7.625 3.0625 -7 1 C-4.53721199 -0.231394 -2.7204945 -0.07159196 0 0 Z " fill="#953F3D" transform="translate(312,182)"/>
<path d="M0 0 C1.32 1.65 2.64 3.3 4 5 C3.34 6.32 2.68 7.64 2 9 C-0.16295027 6.83704973 -0.5534013 5.94755143 -1 3 C-0.67 2.01 -0.34 1.02 0 0 Z " fill="#F6E4E2" transform="translate(369,822)"/>
<path d="M0 0 C0.33 0 0.66 0 1 0 C1 2.97 1 5.94 1 9 C0.01 9.33 -0.98 9.66 -2 10 C-1.34 6.7 -0.68 3.4 0 0 Z " fill="#9D5250" transform="translate(860,659)"/>
<path d="M0 0 C-1.44253657 3.36591866 -3.33264727 5.51047079 -6 8 C-5.6875 5.125 -5.6875 5.125 -5 2 C-2 0 -2 0 0 0 Z " fill="#F6E0DD" transform="translate(879,624)"/>
<path d="M0 0 C0 0.33 0 0.66 0 1 C-1.43333021 1.39063507 -2.87192679 1.76198474 -4.3125 2.125 C-5.51326172 2.43824219 -5.51326172 2.43824219 -6.73828125 2.7578125 C-9 3 -9 3 -12 1 C-10.56496445 0.63597631 -9.12683494 0.28413409 -7.6875 -0.0625 C-6.88699219 -0.25972656 -6.08648438 -0.45695313 -5.26171875 -0.66015625 C-3 -1 -3 -1 0 0 Z " fill="#9A4B48" transform="translate(917,606)"/>
<path d="M0 0 C1.25541557 3.76624671 0.37061958 5.37188934 -1 9 C-1.99 9 -2.98 9 -4 9 C-2.94124926 5.59687262 -1.99097846 2.98646769 0 0 Z " fill="#FCE9E4" transform="translate(773,600)"/>
<path d="M0 0 C2.56616632 3.84924948 2.55097676 6.4349304 3 11 C2.34 11 1.68 11 1 11 C0.4254048 7.26513121 0 3.78706732 0 0 Z " fill="#F1D4D2" transform="translate(841,235)"/>
<path d="M0 0 C2.46800047 1.15173355 4.04783565 2.04783565 6 4 C5.625 6.125 5.625 6.125 5 8 C2.74754119 5.31158141 1.11786042 3.35358125 0 0 Z " fill="#92413D" transform="translate(831,214)"/>
<path d="M0 0 C0.99 0 1.98 0 3 0 C3.99 1.98 4.98 3.96 6 6 C5.34 6.66 4.68 7.32 4 8 C2.68 5.36 1.36 2.72 0 0 Z " fill="#FAE7E3" transform="translate(273,880)"/>
<path d="M0 0 C0.99 1.32 1.98 2.64 3 4 C-0.75 6 -0.75 6 -3 6 C-2 4 -1 2 0 0 Z " fill="#F8E9E6" transform="translate(740,824)"/>
<path d="M0 0 C1.46726798 3.81489674 0.43336419 6.29011622 -1 10 C-1.66 10 -2.32 10 -3 10 C-2.21302675 6.58978257 -1.12880057 3.31114834 0 0 Z " fill="#903530" transform="translate(541,746)"/>
<path d="M0 0 C0.33 0 0.66 0 1 0 C1.125 7.75 1.125 7.75 0 10 C-0.66 10 -1.32 10 -2 10 C-1.34 6.7 -0.68 3.4 0 0 Z " fill="#964745" transform="translate(633,360)"/>
<path d="M0 0 C0.33 0 0.66 0 1 0 C1.36923077 7.50769231 1.36923077 7.50769231 -0.5 10 C-0.995 10.33 -1.49 10.66 -2 11 C-1.125 3.375 -1.125 3.375 0 0 Z " fill="#F5DBD7" transform="translate(579,316)"/>
<path d="M0 0 C0.66 0 1.32 0 2 0 C0.7874262 3.72433382 -0.50859979 7.37802806 -2 11 C-2.88852764 8.51212261 -3.17660068 7.41627302 -2.125 4.9375 C-1.75375 4.298125 -1.3825 3.65875 -1 3 C-0.67 2.01 -0.34 1.02 0 0 Z " fill="#F5DDDB" transform="translate(370,276)"/>
<path d="M0 0 C0.66 0.33 1.32 0.66 2 1 C-0.64 2.98 -3.28 4.96 -6 7 C-6 6.01 -6 5.02 -6 4 C-5.34 4 -4.68 4 -4 4 C-3.67 3.01 -3.34 2.02 -3 1 C-2.01 0.67 -1.02 0.34 0 0 Z " fill="#944040" transform="translate(302,187)"/>
<path d="M0 0 C3.91402949 1.26941497 5.79072873 2.51167694 8 6 C7.01 6 6.02 6 5 6 C4.34 4.68 3.68 3.36 3 2 C2.01 2 1.02 2 0 2 C0 1.34 0 0.68 0 0 Z " fill="#F8E4DF" transform="translate(803,186)"/>
<path d="M0 0 C-5.078125 3.3203125 -5.078125 3.3203125 -7 4 C-9.234375 3.1171875 -9.234375 3.1171875 -11 2 C-9.54494642 1.47007308 -8.08581873 0.9513211 -6.625 0.4375 C-5.81289063 0.14746094 -5.00078125 -0.14257812 -4.1640625 -0.44140625 C-2 -1 -2 -1 0 0 Z " fill="#F5DCD7" transform="translate(344,170)"/>
<path d="M0 0 C2.97 0 5.94 0 9 0 C5.55549263 2.29633824 3.06187717 2.54016485 -1 3 C-0.67 2.01 -0.34 1.02 0 0 Z " fill="#F8E5DE" transform="translate(759,936)"/>
<path d="M0 0 C0.99 0.66 1.98 1.32 3 2 C2.195625 2.61875 1.39125 3.2375 0.5625 3.875 C-2.03874519 5.74164041 -2.03874519 5.74164041 -3 8 C-3.66 7.67 -4.32 7.34 -5 7 C-3.35 4.69 -1.7 2.38 0 0 Z " fill="#964645" transform="translate(876,628)"/>
<path d="M0 0 C0.33 0.99 0.66 1.98 1 3 C-0.65 4.32 -2.3 5.64 -4 7 C-4.33 6.01 -4.66 5.02 -5 4 C-4.34 3.34 -3.68 2.68 -3 2 C-2.01 2 -1.02 2 0 2 C0 1.34 0 0.68 0 0 Z " fill="#F4DFDA" transform="translate(325,520)"/>
<path d="M0 0 C0.66 0 1.32 0 2 0 C0.7508258 3.45925163 -0.67527795 6.14693203 -3 9 C-2.5020163 5.26512223 -2.12508244 3.18762365 0 0 Z " fill="#F7E3DD" transform="translate(339,499)"/>
<path d="M0 0 C0.66 0 1.32 0 2 0 C2.1875 2.875 2.1875 2.875 2 6 C1.01 6.66 0.02 7.32 -1 8 C-0.67 5.36 -0.34 2.72 0 0 Z " fill="#964B46" transform="translate(607,466)"/>
<path d="M0 0 C1.65 1.65 3.3 3.3 5 5 C4.67 5.66 4.34 6.32 4 7 C3.34 7 2.68 7 2 7 C0 4 0 4 0 0 Z " fill="#FCEAE6" transform="translate(825,207)"/>
<path d="M0 0 C2.97 0.495 2.97 0.495 6 1 C3.64046906 3.35953094 2.22104383 3.49141413 -1 4 C-1.33 3.34 -1.66 2.68 -2 2 C-1.34 2 -0.68 2 0 2 C0 1.34 0 0.68 0 0 Z " fill="#923A38" transform="translate(332,169)"/>
</svg>
